RecursiveMono-TextMediumv0.0.4.ufo
<glyph name="comma" format="1">
  <advance width="600"/>
  <unicode hex="002C"/>
  <outline>
    <contour>
      <point x="215" y="-126" type="curve" smooth="yes"/>
      <point x="231" y="-142"/>
      <point x="255" y="-150"/>
      <point x="288" y="-150" type="curve" smooth="yes"/>
      <point x="307" y="-150" type="line"/>
      <point x="307" y="-76"/>
      <point x="382" y="10"/>
      <point x="382" y="88" type="curve" smooth="yes"/>
      <point x="382" y="95"/>
      <point x="380" y="98"/>
      <point x="375" y="103" type="curve" smooth="yes"/>
      <point x="356" y="122"/>
      <point x="310" y="130"/>
      <point x="275" y="130" type="curve" smooth="yes"/>
      <point x="256" y="130" type="line"/>
      <point x="256" y="52"/>
      <point x="208" y="-37"/>
      <point x="208" y="-111" type="curve" smooth="yes"/>
      <point x="208" y="-118"/>
      <point x="210" y="-121"/>
    </contour>
  </outline>
</glyph>
<glyph name="B" format="1">
  <advance width="600"/>
  <unicode hex="0042"/>
  <outline>
    <contour>
      <point x="35" y="700" type="curve"/>
      <point x="35" y="681" type="line" smooth="yes"/>
      <point x="35" y="645"/>
      <point x="39" y="611"/>
      <point x="53" y="597" type="curve" smooth="yes"/>
      <point x="58" y="592"/>
      <point x="63" y="590"/>
      <point x="69" y="590" type="curve" smooth="yes"/>
      <point x="78" y="590"/>
      <point x="88" y="592"/>
      <point x="111" y="597" type="curve" smooth="yes"/>
      <point x="156" y="606"/>
      <point x="217" y="610"/>
      <point x="311" y="610" type="curve" smooth="yes"/>
      <point x="384" y="610"/>
      <point x="426" y="601"/>
      <point x="472" y="567" type="curve"/>
      <point x="494" y="589"/>
      <point x="493" y="636"/>
      <point x="474" y="656" type="curve" smooth="yes"/>
      <point x="424" y="705"/>
      <point x="378" y="720"/>
      <point x="297" y="720" type="curve" smooth="yes"/>
      <point x="207" y="720"/>
      <point x="127" y="715"/>
    </contour>
    <contour>
      <point x="201" y="20" type="line"/>
      <point x="201" y="212"/>
      <point x="201" y="445"/>
      <point x="201" y="636" type="curve" smooth="yes"/>
      <point x="201" y="643"/>
      <point x="199" y="646"/>
      <point x="194" y="651" type="curve" smooth="yes"/>
      <point x="183" y="662"/>
      <point x="139" y="672"/>
      <point x="104" y="672" type="curve" smooth="yes"/>
      <point x="85" y="672" type="line"/>
      <point x="85" y="532"/>
      <point x="85" y="362"/>
      <point x="85" y="222" type="curve" smooth="yes"/>
      <point x="85" y="168"/>
      <point x="85" y="117"/>
      <point x="85" y="63" type="curve" smooth="yes"/>
      <point x="85" y="39"/>
      <point x="140" y="20"/>
      <point x="182" y="20" type="curve" smooth="yes"/>
    </contour>
    <contour>
      <point x="534" y="485" type="curve" smooth="yes"/>
      <point x="534" y="526" type="line" smooth="yes"/>
      <point x="534" y="571"/>
      <point x="517" y="615"/>
      <point x="474" y="656" type="curve" smooth="yes"/>
      <point x="441" y="687"/>
      <point x="391" y="688"/>
      <point x="359" y="661" type="curve"/>
      <point x="406" y="625"/>
      <point x="424" y="586"/>
      <point x="424" y="513" type="curve" smooth="yes"/>
      <point x="424" y="483" type="line" smooth="yes"/>
      <point x="424" y="398"/>
      <point x="347" y="364"/>
      <point x="240" y="364" type="curve" smooth="yes"/>
      <point x="205" y="364"/>
      <point x="193" y="368"/>
      <point x="171" y="380" type="curve"/>
      <point x="162" y="372"/>
      <point x="158" y="359"/>
      <point x="158" y="346" type="curve" smooth="yes"/>
      <point x="158" y="310"/>
      <point x="197" y="275"/>
      <point x="239" y="275" type="curve" smooth="yes"/>
      <point x="399" y="275"/>
      <point x="534" y="347"/>
    </contour>
    <contour>
      <point x="522" y="180" type="curve" smooth="yes"/>
      <point x="522" y="209" type="line" smooth="yes"/>
      <point x="522" y="255"/>
      <point x="501" y="298"/>
      <point x="450" y="336" type="curve" smooth="yes"/>
      <point x="419" y="362"/>
      <point x="380" y="353"/>
      <point x="353" y="335" type="curve"/>
      <point x="397" y="301"/>
      <point x="412" y="273"/>
      <point x="412" y="220" type="curve" smooth="yes"/>
      <point x="412" y="190" type="line" smooth="yes"/>
      <point x="412" y="128"/>
      <point x="343" y="97"/>
      <point x="259" y="97" type="curve" smooth="yes"/>
      <point x="176" y="97"/>
      <point x="142" y="104"/>
      <point x="102" y="120" type="curve"/>
      <point x="89" y="103"/>
      <point x="85" y="80"/>
      <point x="85" y="63" type="curve" smooth="yes"/>
      <point x="85" y="26"/>
      <point x="161" y="-10"/>
      <point x="262" y="-10" type="curve" smooth="yes"/>
      <point x="397" y="-10"/>
      <point x="522" y="60"/>
    </contour>
  </outline>
</glyph>
<glyph name="C" format="1">
  <advance width="600"/>
  <unicode hex="0043"/>
  <outline>
    <contour>
      <point x="525" y="410" type="line"/>
      <point x="525" y="573" type="line" smooth="yes"/>
      <point x="525" y="608"/>
      <point x="513" y="640"/>
      <point x="481" y="671" type="curve" smooth="yes"/>
      <point x="449" y="703"/>
      <point x="414" y="700"/>
      <point x="396" y="673" type="curve"/>
      <point x="406" y="657"/>
      <point x="415" y="624"/>
      <point x="415" y="597" type="curve" smooth="yes"/>
      <point x="415" y="452" type="line" smooth="yes"/>
      <point x="415" y="446"/>
      <point x="416" y="442"/>
      <point x="422" y="437" type="curve" smooth="yes"/>
      <point x="440" y="419"/>
      <point x="469" y="410"/>
      <point x="506" y="410" type="curve" smooth="yes"/>
    </contour>
    <contour>
      <point x="385" y="720" type="curve" smooth="yes"/>
      <point x="213" y="720"/>
      <point x="72" y="497"/>
      <point x="72" y="257" type="curve" smooth="yes"/>
      <point x="72" y="238" type="line" smooth="yes"/>
      <point x="72" y="184"/>
      <point x="127" y="125"/>
      <point x="197" y="118" type="curve"/>
      <point x="186" y="152"/>
      <point x="180" y="196"/>
      <point x="180" y="233" type="curve"/>
      <point x="180" y="246" type="line"/>
      <point x="180" y="437"/>
      <point x="288" y="611"/>
      <point x="386" y="611" type="curve" smooth="yes"/>
      <point x="412" y="611"/>
      <point x="435" y="604"/>
      <point x="462" y="587" type="curve"/>
      <point x="498" y="606"/>
      <point x="508" y="645"/>
      <point x="481" y="671" type="curve"/>
      <point x="454" y="699"/>
      <point x="423" y="720"/>
    </contour>
    <contour>
      <point x="326" y="-20" type="curve" smooth="yes"/>
      <point x="452" y="-20"/>
      <point x="550" y="35"/>
      <point x="550" y="88" type="curve" smooth="yes"/>
      <point x="550" y="126"/>
      <point x="550" y="160"/>
      <point x="550" y="179" type="curve"/>
      <point x="530" y="179" type="line"/>
      <point x="481" y="116"/>
      <point x="418" y="90"/>
      <point x="326" y="90" type="curve" smooth="yes"/>
      <point x="211" y="90"/>
      <point x="166" y="156"/>
      <point x="166" y="288" type="curve"/>
      <point x="110" y="288"/>
      <point x="72" y="277"/>
      <point x="72" y="252" type="curve" smooth="yes"/>
      <point x="72" y="238" type="line" smooth="yes"/>
      <point x="72" y="95"/>
      <point x="163" y="-20"/>
    </contour>
  </outline>
</glyph>
<glyph name="D" format="1">
  <advance width="600"/>
  <unicode hex="0044"/>
  <outline>
    <contour>
      <point x="35" y="700" type="curve"/>
      <point x="35" y="681" type="line" smooth="yes"/>
      <point x="35" y="645"/>
      <point x="39" y="611"/>
      <point x="53" y="597" type="curve" smooth="yes"/>
      <point x="58" y="592"/>
      <point x="63" y="590"/>
      <point x="69" y="590" type="curve" smooth="yes"/>
      <point x="78" y="590"/>
      <point x="88" y="592"/>
      <point x="111" y="597" type="curve" smooth="yes"/>
      <point x="152" y="605"/>
      <point x="207" y="610"/>
      <point x="291" y="610" type="curve" smooth="yes"/>
      <point x="367" y="610"/>
      <point x="408" y="597"/>
      <point x="459" y="559" type="curve"/>
      <point x="478" y="578"/>
      <point x="478" y="632"/>
      <point x="458" y="652" type="curve" smooth="yes"/>
      <point x="406" y="703"/>
      <point x="360" y="720"/>
      <point x="277" y="720" type="curve" smooth="yes"/>
      <point x="193" y="720"/>
      <point x="120" y="714"/>
    </contour>
    <contour>
      <point x="201" y="28" type="curve"/>
      <point x="201" y="214"/>
      <point x="201" y="449"/>
      <point x="201" y="636" type="curve" smooth="yes"/>
      <point x="201" y="643"/>
      <point x="199" y="646"/>
      <point x="194" y="651" type="curve" smooth="yes"/>
      <point x="183" y="662"/>
      <point x="139" y="672"/>
      <point x="104" y="672" type="curve" smooth="yes"/>
      <point x="85" y="672" type="line"/>
      <point x="85" y="531"/>
      <point x="85" y="359"/>
      <point x="85" y="218" type="curve" smooth="yes"/>
      <point x="85" y="170"/>
      <point x="85" y="121"/>
      <point x="85" y="73" type="curve" smooth="yes"/>
      <point x="85" y="47"/>
      <point x="139" y="28"/>
    </contour>
    <contour>
      <point x="534" y="314" type="curve" smooth="yes"/>
      <point x="534" y="418" type="line" smooth="yes"/>
      <point x="534" y="500"/>
      <point x="526" y="584"/>
      <point x="458" y="652" type="curve" smooth="yes"/>
      <point x="425" y="684"/>
      <point x="374" y="687"/>
      <point x="340" y="658" type="curve"/>
      <point x="411" y="603"/>
      <point x="424" y="530"/>
      <point x="424" y="405" type="curve" smooth="yes"/>
      <point x="424" y="312" type="line" smooth="yes"/>
      <point x="424" y="182"/>
      <point x="353" y="103"/>
      <point x="238" y="103" type="curve" smooth="yes"/>
      <point x="178" y="103"/>
      <point x="150" y="109"/>
      <point x="99" y="131" type="curve"/>
      <point x="89" y="118"/>
      <point x="85" y="96"/>
      <point x="85" y="73" type="curve" smooth="yes"/>
      <point x="85" y="35"/>
      <point x="163" y="-10"/>
      <point x="246" y="-10" type="curve" smooth="yes"/>
      <point x="409" y="-10"/>
      <point x="534" y="109"/>
    </contour>
  </outline>
</glyph>
<glyph name="G" format="1">
  <advance width="600"/>
  <unicode hex="0047"/>
  <outline>
    <contour>
      <point x="525" y="461" type="line"/>
      <point x="525" y="573" type="line" smooth="yes"/>
      <point x="525" y="608"/>
      <point x="513" y="640"/>
      <point x="481" y="671" type="curve" smooth="yes"/>
      <point x="449" y="703"/>
      <point x="414" y="700"/>
      <point x="396" y="673" type="curve"/>
      <point x="406" y="657"/>
      <point x="415" y="624"/>
      <point x="415" y="597" type="curve" smooth="yes"/>
      <point x="415" y="503" type="line" smooth="yes"/>
      <point x="415" y="497"/>
      <point x="416" y="493"/>
      <point x="422" y="488" type="curve" smooth="yes"/>
      <point x="440" y="470"/>
      <point x="469" y="461"/>
      <point x="506" y="461" type="curve" smooth="yes"/>
    </contour>
    <contour>
      <point x="379" y="720" type="curve" smooth="yes"/>
      <point x="212" y="720"/>
      <point x="72" y="596"/>
      <point x="72" y="345" type="curve" smooth="yes"/>
      <point x="72" y="238" type="line" smooth="yes"/>
      <point x="72" y="184"/>
      <point x="127" y="125"/>
      <point x="197" y="118" type="curve"/>
      <point x="186" y="152"/>
      <point x="180" y="196"/>
      <point x="180" y="233" type="curve" smooth="yes"/>
      <point x="180" y="340" type="line" smooth="yes"/>
      <point x="180" y="533"/>
      <point x="285" y="617"/>
      <point x="381" y="617" type="curve" smooth="yes"/>
      <point x="412" y="617"/>
      <point x="435" y="610"/>
      <point x="462" y="593" type="curve"/>
      <point x="498" y="612"/>
      <point x="508" y="645"/>
      <point x="481" y="671" type="curve"/>
      <point x="454" y="699"/>
      <point x="423" y="720"/>
    </contour>
    <contour>
      <point x="326" y="-20" type="curve" smooth="yes"/>
      <point x="440" y="-20"/>
      <point x="530" y="49"/>
      <point x="530" y="143" type="curve" smooth="yes"/>
      <point x="530" y="190"/>
      <point x="514" y="232"/>
      <point x="494" y="253" type="curve" smooth="yes"/>
      <point x="486" y="261"/>
      <point x="469" y="267"/>
      <point x="456" y="267" type="curve"/>
      <point x="460" y="250"/>
      <point x="462" y="235"/>
      <point x="462" y="216" type="curve" smooth="yes"/>
      <point x="462" y="123"/>
      <point x="402" y="90"/>
      <point x="326" y="90" type="curve" smooth="yes"/>
      <point x="211" y="90"/>
      <point x="168" y="156"/>
      <point x="168" y="294" type="curve"/>
      <point x="112" y="295"/>
      <point x="72" y="325"/>
      <point x="72" y="300" type="curve" smooth="yes"/>
      <point x="72" y="238" type="line" smooth="yes"/>
      <point x="72" y="95"/>
      <point x="163" y="-20"/>
    </contour>
    <contour>
      <point x="311" y="333" type="curve"/>
      <point x="311" y="314" type="line" smooth="yes"/>
      <point x="311" y="279"/>
      <point x="319" y="261"/>
      <point x="338" y="242" type="curve" smooth="yes"/>
      <point x="343" y="237"/>
      <point x="346" y="235"/>
      <point x="353" y="235" type="curve"/>
      <point x="400" y="235"/>
      <point x="362" y="235"/>
      <point x="409" y="235" type="curve" smooth="yes"/>
      <point x="467" y="235"/>
      <point x="518" y="235"/>
      <point x="576" y="235" type="curve"/>
      <point x="576" y="254" type="line" smooth="yes"/>
      <point x="576" y="275"/>
      <point x="566" y="303"/>
      <point x="543" y="326" type="curve" smooth="yes"/>
      <point x="538" y="331"/>
      <point x="535" y="333"/>
      <point x="528" y="333" type="curve" smooth="yes"/>
      <point x="433" y="333"/>
      <point x="405" y="333"/>
    </contour>
  </outline>
</glyph>
<glyph name="H" format="1">
  <advance width="600"/>
  <unicode hex="0048"/>
  <outline>
    <contour>
      <point x="201" y="-10" type="line"/>
      <point x="201" y="189"/>
      <point x="201" y="474"/>
      <point x="201" y="674" type="curve" smooth="yes"/>
      <point x="201" y="681"/>
      <point x="199" y="684"/>
      <point x="194" y="689" type="curve" smooth="yes"/>
      <point x="183" y="700"/>
      <point x="139" y="710"/>
      <point x="104" y="710" type="curve" smooth="yes"/>
      <point x="85" y="710" type="line"/>
      <point x="85" y="604"/>
      <point x="85" y="414"/>
      <point x="85" y="308" type="curve" smooth="yes"/>
      <point x="85" y="217"/>
      <point x="85" y="123"/>
      <point x="85" y="32" type="curve" smooth="yes"/>
      <point x="85" y="25"/>
      <point x="87" y="22"/>
      <point x="92" y="17" type="curve" smooth="yes"/>
      <point x="111" y="-2"/>
      <point x="147" y="-10"/>
      <point x="182" y="-10" type="curve" smooth="yes"/>
    </contour>
    <contour>
      <point x="521" y="-10" type="line"/>
      <point x="521" y="190"/>
      <point x="521" y="474"/>
      <point x="521" y="674" type="curve" smooth="yes"/>
      <point x="521" y="681"/>
      <point x="519" y="684"/>
      <point x="514" y="689" type="curve" smooth="yes"/>
      <point x="503" y="700"/>
      <point x="459" y="710"/>
      <point x="424" y="710" type="curve" smooth="yes"/>
      <point x="405" y="710" type="line"/>
      <point x="405" y="604"/>
      <point x="405" y="414"/>
      <point x="405" y="308" type="curve" smooth="yes"/>
      <point x="405" y="217"/>
      <point x="405" y="123"/>
      <point x="405" y="32" type="curve" smooth="yes"/>
      <point x="405" y="25"/>
      <point x="407" y="22"/>
      <point x="412" y="17" type="curve" smooth="yes"/>
      <point x="431" y="-2"/>
      <point x="467" y="-10"/>
      <point x="502" y="-10" type="curve" smooth="yes"/>
    </contour>
    <contour>
      <point x="35" y="360" type="curve"/>
      <point x="35" y="341" type="line" smooth="yes"/>
      <point x="35" y="306"/>
      <point x="43" y="276"/>
      <point x="62" y="257" type="curve" smooth="yes"/>
      <point x="67" y="252"/>
      <point x="70" y="250"/>
      <point x="77" y="250" type="curve"/>
      <point x="135" y="250"/>
      <point x="184" y="250"/>
      <point x="241" y="250" type="curve"/>
      <point x="321" y="250"/>
      <point x="412" y="250"/>
      <point x="492" y="250" type="curve"/>
      <point x="492" y="269" type="line" smooth="yes"/>
      <point x="492" y="290"/>
      <point x="476" y="330"/>
      <point x="453" y="353" type="curve" smooth="yes"/>
      <point x="448" y="358"/>
      <point x="445" y="360"/>
      <point x="438" y="360" type="curve" smooth="yes"/>
      <point x="303" y="360"/>
      <point x="169" y="360"/>
    </contour>
  </outline>
</glyph>
<glyph name="I" format="1">
  <advance width="600"/>
  <unicode hex="0049"/>
  <outline>
    <contour>
      <point x="58" y="700" type="curve"/>
      <point x="58" y="681" type="line" smooth="yes"/>
      <point x="58" y="646"/>
      <point x="66" y="616"/>
      <point x="85" y="597" type="curve" smooth="yes"/>
      <point x="90" y="592"/>
      <point x="93" y="590"/>
      <point x="100" y="590" type="curve"/>
      <point x="155" y="590"/>
      <point x="187" y="590"/>
      <point x="241" y="590" type="curve"/>
      <point x="329" y="590"/>
      <point x="454" y="590"/>
      <point x="542" y="590" type="curve"/>
      <point x="542" y="609" type="line" smooth="yes"/>
      <point x="542" y="630"/>
      <point x="526" y="670"/>
      <point x="503" y="693" type="curve" smooth="yes"/>
      <point x="498" y="698"/>
      <point x="495" y="700"/>
      <point x="488" y="700" type="curve" smooth="yes"/>
      <point x="349" y="700"/>
      <point x="197" y="700"/>
    </contour>
    <contour>
      <point x="355" y="32" type="line"/>
      <point x="355" y="226"/>
      <point x="355" y="438"/>
      <point x="355" y="632" type="curve" smooth="yes"/>
      <point x="355" y="639"/>
      <point x="353" y="642"/>
      <point x="348" y="647" type="curve" smooth="yes"/>
      <point x="337" y="658"/>
      <point x="293" y="668"/>
      <point x="258" y="668" type="curve" smooth="yes"/>
      <point x="239" y="668" type="line"/>
      <point x="239" y="565"/>
      <point x="239" y="411"/>
      <point x="239" y="308" type="curve" smooth="yes"/>
      <point x="239" y="221"/>
      <point x="239" y="161"/>
      <point x="239" y="74" type="curve" smooth="yes"/>
      <point x="239" y="67"/>
      <point x="241" y="64"/>
      <point x="246" y="59" type="curve" smooth="yes"/>
      <point x="265" y="40"/>
      <point x="301" y="32"/>
      <point x="336" y="32" type="curve" smooth="yes"/>
    </contour>
    <contour>
      <point x="58" y="110" type="curve"/>
      <point x="58" y="91" type="line" smooth="yes"/>
      <point x="58" y="56"/>
      <point x="66" y="26"/>
      <point x="85" y="7" type="curve" smooth="yes"/>
      <point x="90" y="2"/>
      <point x="93" y="0"/>
      <point x="100" y="0" type="curve"/>
      <point x="155" y="0"/>
      <point x="187" y="0"/>
      <point x="241" y="0" type="curve"/>
      <point x="329" y="0"/>
      <point x="454" y="0"/>
      <point x="542" y="0" type="curve"/>
      <point x="542" y="19" type="line" smooth="yes"/>
      <point x="542" y="40"/>
      <point x="526" y="80"/>
      <point x="503" y="103" type="curve" smooth="yes"/>
      <point x="498" y="108"/>
      <point x="495" y="110"/>
      <point x="488" y="110" type="curve" smooth="yes"/>
      <point x="349" y="110"/>
      <point x="197" y="110"/>
    </contour>
  </outline>
</glyph>
<glyph name="L" format="1">
  <advance width="600"/>
  <unicode hex="004C"/>
  <outline>
    <contour>
      <point x="195" y="58" type="line"/>
      <point x="195" y="255"/>
      <point x="195" y="477"/>
      <point x="195" y="674" type="curve" smooth="yes"/>
      <point x="195" y="681"/>
      <point x="193" y="684"/>
      <point x="188" y="689" type="curve" smooth="yes"/>
      <point x="177" y="700"/>
      <point x="133" y="710"/>
      <point x="98" y="710" type="curve" smooth="yes"/>
      <point x="79" y="710" type="line"/>
      <point x="79" y="604"/>
      <point x="79" y="414"/>
      <point x="79" y="308" type="curve" smooth="yes"/>
      <point x="79" y="220"/>
      <point x="79" y="188"/>
      <point x="79" y="100" type="curve" smooth="yes"/>
      <point x="79" y="93"/>
      <point x="81" y="90"/>
      <point x="86" y="85" type="curve" smooth="yes"/>
      <point x="105" y="66"/>
      <point x="141" y="58"/>
      <point x="176" y="58" type="curve" smooth="yes"/>
    </contour>
    <contour>
      <point x="79" y="110" type="curve"/>
      <point x="79" y="91" type="line" smooth="yes"/>
      <point x="79" y="56"/>
      <point x="87" y="26"/>
      <point x="106" y="7" type="curve" smooth="yes"/>
      <point x="111" y="2"/>
      <point x="114" y="0"/>
      <point x="121" y="0" type="curve"/>
      <point x="171" y="0"/>
      <point x="155" y="0"/>
      <point x="205" y="0" type="curve" smooth="yes"/>
      <point x="296" y="0"/>
      <point x="463" y="0"/>
      <point x="554" y="0" type="curve"/>
      <point x="554" y="19" type="line" smooth="yes"/>
      <point x="554" y="40"/>
      <point x="538" y="80"/>
      <point x="515" y="103" type="curve" smooth="yes"/>
      <point x="510" y="108"/>
      <point x="507" y="110"/>
      <point x="500" y="110" type="curve" smooth="yes"/>
      <point x="362" y="110"/>
      <point x="217" y="110"/>
    </contour>
  </outline>
</glyph>
<glyph name="P" format="1">
  <advance width="600"/>
  <unicode hex="0050"/>
  <outline>
    <contour>
      <point x="35" y="700" type="curve"/>
      <point x="35" y="681" type="line" smooth="yes"/>
      <point x="35" y="645"/>
      <point x="39" y="611"/>
      <point x="53" y="597" type="curve" smooth="yes"/>
      <point x="58" y="592"/>
      <point x="63" y="590"/>
      <point x="69" y="590" type="curve" smooth="yes"/>
      <point x="78" y="590"/>
      <point x="88" y="592"/>
      <point x="111" y="597" type="curve" smooth="yes"/>
      <point x="156" y="606"/>
      <point x="217" y="610"/>
      <point x="311" y="610" type="curve" smooth="yes"/>
      <point x="384" y="610"/>
      <point x="424" y="599"/>
      <point x="472" y="563" type="curve"/>
      <point x="494" y="585"/>
      <point x="493" y="632"/>
      <point x="474" y="652" type="curve" smooth="yes"/>
      <point x="423" y="703"/>
      <point x="378" y="720"/>
      <point x="297" y="720" type="curve" smooth="yes"/>
      <point x="206" y="720"/>
      <point x="127" y="715"/>
    </contour>
    <contour>
      <point x="201" y="-10" type="line"/>
      <point x="201" y="189"/>
      <point x="201" y="436"/>
      <point x="201" y="636" type="curve" smooth="yes"/>
      <point x="201" y="643"/>
      <point x="199" y="646"/>
      <point x="194" y="651" type="curve" smooth="yes"/>
      <point x="183" y="662"/>
      <point x="139" y="672"/>
      <point x="104" y="672" type="curve" smooth="yes"/>
      <point x="85" y="672" type="line"/>
      <point x="85" y="531"/>
      <point x="85" y="359"/>
      <point x="85" y="218" type="curve" smooth="yes"/>
      <point x="85" y="157"/>
      <point x="85" y="93"/>
      <point x="85" y="32" type="curve" smooth="yes"/>
      <point x="85" y="25"/>
      <point x="87" y="22"/>
      <point x="92" y="17" type="curve" smooth="yes"/>
      <point x="111" y="-2"/>
      <point x="147" y="-10"/>
      <point x="182" y="-10" type="curve" smooth="yes"/>
    </contour>
    <contour>
      <point x="534" y="465" type="curve" smooth="yes"/>
      <point x="534" y="522" type="line" smooth="yes"/>
      <point x="534" y="567"/>
      <point x="517" y="611"/>
      <point x="474" y="652" type="curve" smooth="yes"/>
      <point x="441" y="683"/>
      <point x="391" y="684"/>
      <point x="359" y="657" type="curve"/>
      <point x="406" y="621"/>
      <point x="424" y="582"/>
      <point x="424" y="509" type="curve" smooth="yes"/>
      <point x="424" y="463" type="line" smooth="yes"/>
      <point x="424" y="347"/>
      <point x="348" y="274"/>
      <point x="242" y="274" type="curve" smooth="yes"/>
      <point x="217" y="274"/>
      <point x="206" y="275"/>
      <point x="185" y="280" type="curve"/>
      <point x="180" y="273"/>
      <point x="176" y="263"/>
      <point x="176" y="252" type="curve" smooth="yes"/>
      <point x="176" y="213"/>
      <point x="226" y="161"/>
      <point x="273" y="161" type="curve" smooth="yes"/>
      <point x="412" y="161"/>
      <point x="534" y="273"/>
    </contour>
  </outline>
</glyph>
<glyph name="R" format="1">
  <advance width="600"/>
  <unicode hex="0052"/>
  <outline>
    <contour>
      <point x="35" y="700" type="curve"/>
      <point x="35" y="681" type="line" smooth="yes"/>
      <point x="35" y="645"/>
      <point x="39" y="611"/>
      <point x="53" y="597" type="curve" smooth="yes"/>
      <point x="58" y="592"/>
      <point x="63" y="590"/>
      <point x="69" y="590" type="curve" smooth="yes"/>
      <point x="78" y="590"/>
      <point x="88" y="592"/>
      <point x="111" y="597" type="curve" smooth="yes"/>
      <point x="156" y="606"/>
      <point x="217" y="610"/>
      <point x="311" y="610" type="curve" smooth="yes"/>
      <point x="384" y="610"/>
      <point x="424" y="599"/>
      <point x="472" y="563" type="curve"/>
      <point x="494" y="585"/>
      <point x="493" y="632"/>
      <point x="474" y="652" type="curve" smooth="yes"/>
      <point x="423" y="703"/>
      <point x="378" y="720"/>
      <point x="297" y="720" type="curve" smooth="yes"/>
      <point x="207" y="720"/>
      <point x="127" y="715"/>
    </contour>
    <contour>
      <point x="201" y="-10" type="line"/>
      <point x="201" y="189"/>
      <point x="201" y="436"/>
      <point x="201" y="636" type="curve" smooth="yes"/>
      <point x="201" y="643"/>
      <point x="199" y="646"/>
      <point x="194" y="651" type="curve" smooth="yes"/>
      <point x="183" y="662"/>
      <point x="139" y="672"/>
      <point x="104" y="672" type="curve" smooth="yes"/>
      <point x="85" y="672" type="line"/>
      <point x="85" y="531"/>
      <point x="85" y="359"/>
      <point x="85" y="218" type="curve" smooth="yes"/>
      <point x="85" y="157"/>
      <point x="85" y="93"/>
      <point x="85" y="32" type="curve" smooth="yes"/>
      <point x="85" y="25"/>
      <point x="87" y="22"/>
      <point x="92" y="17" type="curve" smooth="yes"/>
      <point x="111" y="-2"/>
      <point x="147" y="-10"/>
      <point x="182" y="-10" type="curve" smooth="yes"/>
    </contour>
    <contour>
      <point x="534" y="481" type="curve" smooth="yes"/>
      <point x="534" y="522" type="line" smooth="yes"/>
      <point x="534" y="567"/>
      <point x="517" y="611"/>
      <point x="474" y="652" type="curve" smooth="yes"/>
      <point x="441" y="683"/>
      <point x="391" y="684"/>
      <point x="359" y="657" type="curve"/>
      <point x="406" y="621"/>
      <point x="424" y="582"/>
      <point x="424" y="509" type="curve" smooth="yes"/>
      <point x="424" y="479" type="line" smooth="yes"/>
      <point x="424" y="356"/>
      <point x="341" y="280"/>
      <point x="224" y="280" type="curve" smooth="yes"/>
      <point x="197" y="280"/>
      <point x="188" y="282"/>
      <point x="171" y="291" type="curve"/>
      <point x="162" y="282"/>
      <point x="158" y="270"/>
      <point x="158" y="258" type="curve" smooth="yes"/>
      <point x="158" y="221"/>
      <point x="197" y="185"/>
      <point x="239" y="185" type="curve" smooth="yes"/>
      <point x="399" y="185"/>
      <point x="534" y="304"/>
    </contour>
    <contour>
      <point x="353" y="289" type="line"/>
      <point x="288" y="253"/>
      <point x="262" y="225"/>
      <point x="274" y="205" type="curve" smooth="yes"/>
      <point x="375" y="65" type="line" smooth="yes"/>
      <point x="417" y="4"/>
      <point x="454" y="-20"/>
      <point x="503" y="-20" type="curve" smooth="yes"/>
      <point x="542" y="-20"/>
      <point x="562" y="-3"/>
      <point x="562" y="30" type="curve" smooth="yes"/>
      <point x="562" y="110" type="line"/>
      <point x="549" y="110" type="line"/>
      <point x="543" y="106"/>
      <point x="533" y="102"/>
      <point x="524" y="102" type="curve" smooth="yes"/>
      <point x="490" y="102"/>
      <point x="468" y="116"/>
      <point x="446" y="151" type="curve" smooth="yes"/>
    </contour>
  </outline>
</glyph>
<glyph name="S" format="1">
  <advance width="600"/>
  <unicode hex="0053"/>
  <outline>
    <contour>
      <point x="383" y="321" type="curve" smooth="yes"/>
      <point x="293" y="353" type="line" smooth="yes"/>
      <point x="202" y="386"/>
      <point x="185" y="410"/>
      <point x="185" y="448" type="curve" smooth="yes"/>
      <point x="185" y="467"/>
      <point x="188" y="495"/>
      <point x="197" y="525" type="curve"/>
      <point x="133" y="520"/>
      <point x="78" y="496"/>
      <point x="78" y="431" type="curve" smooth="yes"/>
      <point x="78" y="369"/>
      <point x="113" y="323"/>
      <point x="260" y="269" type="curve" smooth="yes"/>
      <point x="349" y="236" type="line" smooth="yes"/>
      <point x="456" y="196"/>
      <point x="466" y="163"/>
      <point x="466" y="100" type="curve"/>
      <point x="497" y="100"/>
      <point x="540" y="136"/>
      <point x="540" y="170" type="curve"/>
      <point x="540" y="223"/>
      <point x="503" y="277"/>
    </contour>
    <contour>
      <point x="300" y="-20" type="curve" smooth="yes"/>
      <point x="448" y="-20"/>
      <point x="540" y="39"/>
      <point x="540" y="120" type="curve" smooth="yes"/>
      <point x="540" y="170" type="line" smooth="yes"/>
      <point x="540" y="184"/>
      <point x="511" y="192"/>
      <point x="476" y="192" type="curve"/>
      <point x="462" y="121"/>
      <point x="405" y="90"/>
      <point x="300" y="90" type="curve" smooth="yes"/>
      <point x="202" y="90"/>
      <point x="133" y="121"/>
      <point x="80" y="179" type="curve"/>
      <point x="61" y="179" type="line"/>
      <point x="61" y="160"/>
      <point x="61" y="126"/>
      <point x="61" y="88" type="curve" smooth="yes"/>
      <point x="61" y="35"/>
      <point x="166" y="-20"/>
    </contour>
    <contour>
      <point x="385" y="720" type="curve" smooth="yes"/>
      <point x="246" y="720"/>
      <point x="78" y="577"/>
      <point x="78" y="473" type="curve" smooth="yes"/>
      <point x="78" y="431" type="line" smooth="yes"/>
      <point x="78" y="403"/>
      <point x="133" y="376"/>
      <point x="192" y="374" type="curve"/>
      <point x="185" y="398"/>
      <point x="185" y="424"/>
      <point x="185" y="448" type="curve" smooth="yes"/>
      <point x="185" y="521"/>
      <point x="301" y="618"/>
      <point x="386" y="618" type="curve" smooth="yes"/>
      <point x="409" y="618"/>
      <point x="431" y="616"/>
      <point x="456" y="602" type="curve"/>
      <point x="498" y="623"/>
      <point x="507" y="653"/>
      <point x="479" y="680" type="curve"/>
      <point x="454" y="705"/>
      <point x="420" y="720"/>
    </contour>
    <contour>
      <point x="515" y="450" type="line"/>
      <point x="515" y="593" type="line" smooth="yes"/>
      <point x="515" y="626"/>
      <point x="507" y="653"/>
      <point x="479" y="680" type="curve" smooth="yes"/>
      <point x="450" y="710"/>
      <point x="410" y="709"/>
      <point x="390" y="680" type="curve"/>
      <point x="400" y="665"/>
      <point x="405" y="636"/>
      <point x="405" y="609" type="curve" smooth="yes"/>
      <point x="405" y="492" type="line" smooth="yes"/>
      <point x="405" y="486"/>
      <point x="406" y="483"/>
      <point x="412" y="477" type="curve" smooth="yes"/>
      <point x="430" y="459"/>
      <point x="459" y="450"/>
      <point x="496" y="450" type="curve" smooth="yes"/>
    </contour>
  </outline>
</glyph>
<glyph name="a" format="1">
  <advance width="600"/>
  <unicode hex="0061"/>
  <outline>
    <contour>
      <point x="230" y="550" type="curve" smooth="yes"/>
      <point x="167" y="550"/>
      <point x="114" y="539"/>
      <point x="100" y="525" type="curve" smooth="yes"/>
      <point x="92" y="517"/>
      <point x="90" y="509"/>
      <point x="90" y="497" type="curve"/>
      <point x="90" y="423" type="line"/>
      <point x="106" y="423" type="line"/>
      <point x="154" y="437"/>
      <point x="223" y="446"/>
      <point x="275" y="446" type="curve" smooth="yes"/>
      <point x="344" y="446"/>
      <point x="385" y="439"/>
      <point x="449" y="423" type="curve"/>
      <point x="464" y="446"/>
      <point x="461" y="472"/>
      <point x="422" y="510" type="curve"/>
      <point x="393" y="539"/>
      <point x="337" y="550"/>
    </contour>
    <contour>
      <point x="370" y="507" type="curve"/>
      <point x="386" y="423"/>
      <point x="383" y="366"/>
      <point x="377" y="303" type="curve" smooth="yes"/>
      <point x="377" y="231"/>
      <point x="377" y="192"/>
      <point x="377" y="134" type="curve" smooth="yes"/>
      <point x="377" y="85"/>
      <point x="385" y="65"/>
      <point x="412" y="38" type="curve"/>
      <point x="435" y="15"/>
      <point x="501" y="20"/>
      <point x="507" y="46" type="curve"/>
      <point x="494" y="63"/>
      <point x="490" y="82"/>
      <point x="490" y="112" type="curve" smooth="yes"/>
      <point x="490" y="199"/>
      <point x="490" y="250"/>
      <point x="490" y="364" type="curve" smooth="yes"/>
      <point x="490" y="415"/>
      <point x="468" y="463"/>
      <point x="422" y="510" type="curve"/>
      <point x="408" y="525"/>
      <point x="382" y="521"/>
    </contour>
    <contour>
      <point x="416" y="269" type="curve" smooth="yes"/>
      <point x="395" y="290"/>
      <point x="330" y="302"/>
      <point x="236" y="302" type="curve" smooth="yes"/>
      <point x="178" y="302"/>
      <point x="147" y="291"/>
      <point x="115" y="260" type="curve" smooth="yes"/>
      <point x="95" y="239"/>
      <point x="89" y="208"/>
      <point x="102" y="193" type="curve"/>
      <point x="135" y="220"/>
      <point x="170" y="225"/>
      <point x="219" y="225" type="curve" smooth="yes"/>
      <point x="286" y="225"/>
      <point x="379" y="224"/>
      <point x="436" y="219" type="curve"/>
      <point x="435" y="239"/>
      <point x="427" y="258"/>
    </contour>
    <contour>
      <point x="170" y="138" type="curve" smooth="yes"/>
      <point x="170" y="178" type="line" smooth="yes"/>
      <point x="170" y="240"/>
      <point x="175" y="255"/>
      <point x="200" y="280" type="curve"/>
      <point x="169" y="290"/>
      <point x="135" y="279"/>
      <point x="115" y="260" type="curve" smooth="yes"/>
      <point x="72" y="216"/>
      <point x="60" y="194"/>
      <point x="60" y="156" type="curve" smooth="yes"/>
      <point x="60" y="122" type="line" smooth="yes"/>
      <point x="60" y="28"/>
      <point x="106" y="-20"/>
      <point x="191" y="-20" type="curve" smooth="yes"/>
      <point x="279" y="-20"/>
      <point x="347" y="25"/>
      <point x="391" y="99" type="curve" smooth="yes"/>
      <point x="401" y="115"/>
      <point x="405" y="130"/>
      <point x="405" y="158" type="curve"/>
      <point x="348" y="103"/>
      <point x="298" y="84"/>
      <point x="238" y="84" type="curve" smooth="yes"/>
      <point x="216" y="84" type="line" smooth="yes"/>
      <point x="183" y="84"/>
      <point x="170" y="98"/>
    </contour>
    <contour>
      <point x="507" y="-10" type="curve" smooth="yes"/>
      <point x="549" y="-10"/>
      <point x="567" y="6"/>
      <point x="567" y="43" type="curve"/>
      <point x="567" y="110" type="line"/>
      <point x="548" y="110" type="line"/>
      <point x="535" y="109"/>
      <point x="526" y="106"/>
      <point x="508" y="106" type="curve" smooth="yes"/>
      <point x="483" y="106"/>
      <point x="454" y="107"/>
      <point x="419" y="111" type="curve"/>
      <point x="403" y="95"/>
      <point x="397" y="53"/>
      <point x="412" y="38" type="curve"/>
      <point x="439" y="12"/>
      <point x="474" y="-10"/>
    </contour>
  </outline>
</glyph>
<glyph name="b" format="1">
  <advance width="600"/>
  <unicode hex="0062"/>
  <outline>
    <contour>
      <point x="195" y="-10" type="line"/>
      <point x="195" y="219"/>
      <point x="195" y="521"/>
      <point x="195" y="720" type="curve" smooth="yes"/>
      <point x="195" y="727"/>
      <point x="193" y="730"/>
      <point x="188" y="735" type="curve" smooth="yes"/>
      <point x="177" y="746"/>
      <point x="133" y="756"/>
      <point x="98" y="756" type="curve" smooth="yes"/>
      <point x="79" y="756" type="line"/>
      <point x="79" y="616"/>
      <point x="79" y="524"/>
      <point x="79" y="384" type="curve" smooth="yes"/>
      <point x="79" y="294"/>
      <point x="79" y="122"/>
      <point x="79" y="32" type="curve" smooth="yes"/>
      <point x="79" y="25"/>
      <point x="81" y="22"/>
      <point x="86" y="17" type="curve" smooth="yes"/>
      <point x="105" y="-2"/>
      <point x="141" y="-10"/>
      <point x="176" y="-10" type="curve" smooth="yes"/>
    </contour>
    <contour>
      <point x="389" y="544" type="curve" smooth="yes"/>
      <point x="320" y="544"/>
      <point x="237" y="486"/>
      <point x="183" y="418" type="curve" smooth="yes"/>
      <point x="159" y="389"/>
      <point x="153" y="371"/>
      <point x="154" y="322" type="curve"/>
      <point x="246" y="405"/>
      <point x="306" y="428"/>
      <point x="383" y="428" type="curve" smooth="yes"/>
      <point x="439" y="428"/>
      <point x="475" y="384"/>
      <point x="501" y="318" type="curve"/>
      <point x="534" y="319"/>
      <point x="550" y="340"/>
      <point x="550" y="356" type="curve" smooth="yes"/>
      <point x="550" y="455"/>
      <point x="466" y="544"/>
    </contour>
    <contour>
      <point x="333" y="-20" type="curve" smooth="yes"/>
      <point x="474" y="-20"/>
      <point x="550" y="124"/>
      <point x="550" y="318" type="curve" smooth="yes"/>
      <point x="550" y="356" type="line" smooth="yes"/>
      <point x="550" y="402"/>
      <point x="511" y="470"/>
      <point x="462" y="470" type="curve"/>
      <point x="429" y="470"/>
      <point x="405" y="462"/>
      <point x="404" y="439" type="curve"/>
      <point x="421" y="413"/>
      <point x="431" y="389"/>
      <point x="431" y="340" type="curve" smooth="yes"/>
      <point x="431" y="318" type="line" smooth="yes"/>
      <point x="431" y="174"/>
      <point x="374" y="87"/>
      <point x="287" y="87" type="curve" smooth="yes"/>
      <point x="244" y="87"/>
      <point x="215" y="98"/>
      <point x="182" y="122" type="curve"/>
      <point x="177" y="120"/>
      <point x="175" y="116"/>
      <point x="175" y="109" type="curve"/>
      <point x="175" y="63"/>
      <point x="253" y="-20"/>
    </contour>
  </outline>
</glyph>
<glyph name="c" format="1">
  <advance width="600"/>
  <unicode hex="0063"/>
  <outline>
    <contour>
      <point x="360" y="550" type="curve" smooth="yes"/>
      <point x="192" y="550"/>
      <point x="60" y="423"/>
      <point x="60" y="249" type="curve" smooth="yes"/>
      <point x="60" y="219" type="line" smooth="yes"/>
      <point x="60" y="157"/>
      <point x="82" y="97"/>
      <point x="128" y="51" type="curve" smooth="yes"/>
      <point x="151" y="28"/>
      <point x="204" y="15"/>
      <point x="226" y="38" type="curve"/>
      <point x="200" y="79"/>
      <point x="169" y="145"/>
      <point x="169" y="206" type="curve" smooth="yes"/>
      <point x="169" y="239" type="line" smooth="yes"/>
      <point x="169" y="344"/>
      <point x="240" y="440"/>
      <point x="354" y="440" type="curve" smooth="yes"/>
      <point x="403" y="440"/>
      <point x="448" y="429"/>
      <point x="480" y="416" type="curve"/>
      <point x="505" y="429"/>
      <point x="520" y="458"/>
      <point x="483" y="494" type="curve"/>
      <point x="439" y="539"/>
      <point x="417" y="550"/>
    </contour>
    <contour>
      <point x="123" y="141" type="curve"/>
      <point x="102" y="120"/>
      <point x="100" y="79"/>
      <point x="128" y="51" type="curve" smooth="yes"/>
      <point x="173" y="5"/>
      <point x="210" y="-20"/>
      <point x="280" y="-20" type="curve" smooth="yes"/>
      <point x="324" y="-20" type="line" smooth="yes"/>
      <point x="422" y="-20"/>
      <point x="481" y="2"/>
      <point x="510" y="31" type="curve" smooth="yes"/>
      <point x="521" y="42"/>
      <point x="524" y="52"/>
      <point x="524" y="68" type="curve" smooth="yes"/>
      <point x="524" y="95"/>
      <point x="524" y="121"/>
      <point x="524" y="145" type="curve"/>
      <point x="505" y="145" type="line"/>
      <point x="464" y="103"/>
      <point x="398" y="90"/>
      <point x="300" y="90" type="curve" smooth="yes"/>
      <point x="222" y="90"/>
      <point x="169" y="103"/>
    </contour>
    <contour>
      <point x="525" y="296" type="line"/>
      <point x="525" y="408" type="line" smooth="yes"/>
      <point x="525" y="440"/>
      <point x="514" y="464"/>
      <point x="483" y="494" type="curve" smooth="yes"/>
      <point x="455" y="523"/>
      <point x="414" y="521"/>
      <point x="392" y="498" type="curve"/>
      <point x="405" y="483"/>
      <point x="415" y="444"/>
      <point x="415" y="415" type="curve" smooth="yes"/>
      <point x="415" y="338" type="line" smooth="yes"/>
      <point x="415" y="332"/>
      <point x="416" y="329"/>
      <point x="422" y="323" type="curve" smooth="yes"/>
      <point x="440" y="305"/>
      <point x="469" y="296"/>
      <point x="506" y="296" type="curve" smooth="yes"/>
    </contour>
  </outline>
</glyph>
<glyph name="d" format="1">
  <advance width="600"/>
  <unicode hex="0064"/>
  <outline>
    <contour>
      <point x="274" y="550" type="curve" smooth="yes"/>
      <point x="152" y="550"/>
      <point x="54" y="439"/>
      <point x="54" y="226" type="curve" smooth="yes"/>
      <point x="54" y="186" type="line" smooth="yes"/>
      <point x="54" y="139"/>
      <point x="93" y="69"/>
      <point x="153" y="69" type="curve"/>
      <point x="175" y="69"/>
      <point x="191" y="76"/>
      <point x="192" y="96" type="curve"/>
      <point x="179" y="119"/>
      <point x="173" y="153"/>
      <point x="173" y="214" type="curve" smooth="yes"/>
      <point x="173" y="230" type="line" smooth="yes"/>
      <point x="173" y="368"/>
      <point x="216" y="449"/>
      <point x="307" y="449" type="curve" smooth="yes"/>
      <point x="356" y="449"/>
      <point x="385" y="439"/>
      <point x="422" y="426" type="curve"/>
      <point x="431" y="429"/>
      <point x="432" y="449"/>
      <point x="424" y="462" type="curve"/>
      <point x="407" y="501"/>
      <point x="343" y="550"/>
    </contour>
    <contour>
      <point x="521" y="-10" type="line"/>
      <point x="521" y="220"/>
      <point x="521" y="524"/>
      <point x="521" y="724" type="curve" smooth="yes"/>
      <point x="521" y="731"/>
      <point x="519" y="734"/>
      <point x="514" y="739" type="curve" smooth="yes"/>
      <point x="503" y="750"/>
      <point x="459" y="760"/>
      <point x="424" y="760" type="curve" smooth="yes"/>
      <point x="405" y="760" type="line"/>
      <point x="405" y="631"/>
      <point x="405" y="549"/>
      <point x="405" y="420" type="curve" smooth="yes"/>
      <point x="405" y="318"/>
      <point x="405" y="134"/>
      <point x="405" y="32" type="curve" smooth="yes"/>
      <point x="405" y="25"/>
      <point x="407" y="22"/>
      <point x="412" y="17" type="curve" smooth="yes"/>
      <point x="431" y="-2"/>
      <point x="467" y="-10"/>
      <point x="502" y="-10" type="curve" smooth="yes"/>
    </contour>
    <contour>
      <point x="211" y="-14" type="curve" smooth="yes"/>
      <point x="277" y="-14"/>
      <point x="368" y="51"/>
      <point x="417" y="112" type="curve" smooth="yes"/>
      <point x="441" y="141"/>
      <point x="447" y="159"/>
      <point x="446" y="208" type="curve"/>
      <point x="354" y="125"/>
      <point x="294" y="102"/>
      <point x="217" y="102" type="curve" smooth="yes"/>
      <point x="156" y="102"/>
      <point x="132" y="160"/>
      <point x="98" y="234" type="curve"/>
      <point x="67" y="232"/>
      <point x="54" y="207"/>
      <point x="54" y="186" type="curve" smooth="yes"/>
      <point x="54" y="82"/>
      <point x="122" y="-14"/>
    </contour>
  </outline>
</glyph>
<glyph name="e" format="1">
  <advance width="600"/>
  <unicode hex="0065"/>
  <outline>
    <contour>
      <point x="355" y="550" type="curve"/>
      <point x="181" y="550"/>
      <point x="60" y="452"/>
      <point x="60" y="273" type="curve" smooth="yes"/>
      <point x="60" y="213" type="line"/>
      <point x="60" y="144"/>
      <point x="86" y="93"/>
      <point x="126" y="53" type="curve"/>
      <point x="149" y="31"/>
      <point x="189" y="25"/>
      <point x="220" y="45" type="curve"/>
      <point x="188" y="101"/>
      <point x="169" y="149"/>
      <point x="169" y="207" type="curve" smooth="yes"/>
      <point x="169" y="263" type="line" smooth="yes"/>
      <point x="169" y="390"/>
      <point x="238" y="440"/>
      <point x="343" y="440" type="curve" smooth="yes"/>
      <point x="398" y="440"/>
      <point x="435" y="431"/>
      <point x="461" y="402" type="curve"/>
      <point x="484" y="402"/>
      <point x="496" y="420"/>
      <point x="496" y="438" type="curve"/>
      <point x="496" y="502"/>
      <point x="419" y="550"/>
    </contour>
    <contour>
      <point x="354" y="215" type="line" smooth="yes"/>
      <point x="486" y="215"/>
      <point x="540" y="292"/>
      <point x="540" y="364" type="curve" smooth="yes"/>
      <point x="540" y="398" type="line" smooth="yes"/>
      <point x="540" y="463"/>
      <point x="456" y="550"/>
      <point x="367" y="550" type="curve" smooth="yes"/>
      <point x="355" y="550" type="line" smooth="yes"/>
      <point x="318" y="550"/>
      <point x="293" y="523"/>
      <point x="293" y="484" type="curve"/>
      <point x="373" y="484"/>
      <point x="430" y="457"/>
      <point x="430" y="398" type="curve" smooth="yes"/>
      <point x="430" y="361" type="line" smooth="yes"/>
      <point x="430" y="314"/>
      <point x="403" y="295"/>
      <point x="349" y="295" type="curve" smooth="yes"/>
      <point x="264" y="295"/>
      <point x="222" y="295"/>
      <point x="157" y="295" type="curve"/>
      <point x="155" y="290"/>
      <point x="155" y="285"/>
      <point x="156" y="280" type="curve"/>
      <point x="161" y="253"/>
      <point x="217" y="215"/>
      <point x="279" y="215" type="curve" smooth="yes"/>
    </contour>
    <contour>
      <point x="113" y="165" type="curve"/>
      <point x="85" y="137"/>
      <point x="96" y="84"/>
      <point x="126" y="53" type="curve"/>
      <point x="173" y="6"/>
      <point x="217" y="-20"/>
      <point x="290" y="-20" type="curve" smooth="yes"/>
      <point x="322" y="-20" type="line" smooth="yes"/>
      <point x="418" y="-20"/>
      <point x="484" y="4"/>
      <point x="510" y="32" type="curve" smooth="yes"/>
      <point x="520" y="43"/>
      <point x="524" y="54"/>
      <point x="524" y="70" type="curve"/>
      <point x="524" y="93"/>
      <point x="524" y="125"/>
      <point x="524" y="145" type="curve"/>
      <point x="505" y="145" type="line"/>
      <point x="464" y="103"/>
      <point x="398" y="90"/>
      <point x="300" y="90" type="curve" smooth="yes"/>
      <point x="218" y="90"/>
      <point x="159" y="109"/>
    </contour>
  </outline>
</glyph>
<glyph name="f" format="1">
  <advance width="600"/>
  <unicode hex="0066"/>
  <outline>
    <contour>
      <point x="247" y="623" type="curve"/>
      <point x="291" y="654"/>
      <point x="337" y="664"/>
      <point x="400" y="664" type="curve" smooth="yes"/>
      <point x="462" y="664"/>
      <point x="515" y="650"/>
      <point x="546" y="635" type="curve"/>
      <point x="565" y="635" type="line"/>
      <point x="565" y="656" type="line"/>
      <point x="565" y="692"/>
      <point x="556" y="722"/>
      <point x="545" y="735" type="curve" smooth="yes"/>
      <point x="532" y="750"/>
      <point x="480" y="765"/>
      <point x="432" y="765" type="curve"/>
      <point x="416" y="765" type="line"/>
      <point x="347" y="765"/>
      <point x="295" y="758"/>
      <point x="242" y="705" type="curve" smooth="yes"/>
      <point x="220" y="684"/>
      <point x="220" y="644"/>
    </contour>
    <contour>
      <point x="295" y="-10" type="line"/>
      <point x="295" y="180"/>
      <point x="295" y="329"/>
      <point x="295" y="500" type="curve" smooth="yes"/>
      <point x="286" y="587"/>
      <point x="279" y="649"/>
      <point x="302" y="716" type="curve"/>
      <point x="282" y="727"/>
      <point x="259" y="722"/>
      <point x="242" y="705" type="curve" smooth="yes"/>
      <point x="201" y="665"/>
      <point x="185" y="631"/>
      <point x="185" y="574" type="curve"/>
      <point x="185" y="430"/>
      <point x="185" y="231"/>
      <point x="185" y="32" type="curve"/>
      <point x="185" y="25"/>
      <point x="187" y="22"/>
      <point x="192" y="17" type="curve" smooth="yes"/>
      <point x="211" y="-2"/>
      <point x="241" y="-10"/>
      <point x="276" y="-10" type="curve" smooth="yes"/>
    </contour>
    <contour>
      <point x="35" y="480" type="curve"/>
      <point x="35" y="461" type="line" smooth="yes"/>
      <point x="35" y="424"/>
      <point x="44" y="395"/>
      <point x="62" y="377" type="curve" smooth="yes"/>
      <point x="68" y="371"/>
      <point x="71" y="370"/>
      <point x="77" y="370" type="curve"/>
      <point x="133" y="370"/>
      <point x="200" y="370"/>
      <point x="256" y="370" type="curve"/>
      <point x="309" y="370"/>
      <point x="485" y="370"/>
      <point x="530" y="370" type="curve"/>
      <point x="530" y="389" type="line" smooth="yes"/>
      <point x="530" y="427"/>
      <point x="521" y="455"/>
      <point x="503" y="473" type="curve" smooth="yes"/>
      <point x="497" y="479"/>
      <point x="494" y="480"/>
      <point x="488" y="480" type="curve" smooth="yes"/>
      <point x="389" y="480"/>
      <point x="134" y="480"/>
    </contour>
  </outline>
</glyph>
<glyph name="g" format="1">
  <advance width="600"/>
  <unicode hex="0067"/>
  <outline>
    <contour>
      <point x="319" y="453" type="curve" smooth="yes"/>
      <point x="371" y="453"/>
      <point x="418" y="442"/>
      <point x="448" y="424" type="curve"/>
      <point x="476" y="463"/>
      <point x="476" y="497"/>
      <point x="459" y="514" type="curve" smooth="yes"/>
      <point x="434" y="539"/>
      <point x="368" y="550"/>
      <point x="311" y="550" type="curve" smooth="yes"/>
      <point x="175" y="550"/>
      <point x="68" y="474"/>
      <point x="68" y="356" type="curve" smooth="yes"/>
      <point x="68" y="329" type="line" smooth="yes"/>
      <point x="68" y="284"/>
      <point x="86" y="248"/>
      <point x="127" y="206" type="curve" smooth="yes"/>
      <point x="140" y="194"/>
      <point x="200" y="190"/>
      <point x="210" y="202" type="curve"/>
      <point x="185" y="238"/>
      <point x="172" y="263"/>
      <point x="172" y="314" type="curve" smooth="yes"/>
      <point x="172" y="333" type="line" smooth="yes"/>
      <point x="172" y="420"/>
      <point x="223" y="453"/>
    </contour>
    <contour>
      <point x="297" y="249" type="curve" smooth="yes"/>
      <point x="234" y="249"/>
      <point x="169" y="255"/>
      <point x="120" y="281" type="curve"/>
      <point x="109" y="255"/>
      <point x="107" y="227"/>
      <point x="127" y="206" type="curve" smooth="yes"/>
      <point x="177" y="156"/>
      <point x="232" y="151"/>
      <point x="309" y="151" type="curve" smooth="yes"/>
      <point x="444" y="151"/>
      <point x="532" y="233"/>
      <point x="532" y="344" type="curve" smooth="yes"/>
      <point x="532" y="371" type="line" smooth="yes"/>
      <point x="532" y="418"/>
      <point x="520" y="453"/>
      <point x="459" y="514" type="curve" smooth="yes"/>
      <point x="441" y="532"/>
      <point x="393" y="526"/>
      <point x="372" y="507" type="curve"/>
      <point x="411" y="475"/>
      <point x="428" y="442"/>
      <point x="428" y="379" type="curve" smooth="yes"/>
      <point x="428" y="358" type="line" smooth="yes"/>
      <point x="428" y="290"/>
      <point x="377" y="249"/>
    </contour>
    <contour>
      <point x="170" y="58" type="curve" smooth="yes"/>
      <point x="170" y="45" type="line" smooth="yes"/>
      <point x="170" y="-12"/>
      <point x="218" y="-46"/>
      <point x="296" y="-46" type="curve" smooth="yes"/>
      <point x="417" y="-46" type="line" smooth="yes"/>
      <point x="441" y="-46"/>
      <point x="456" y="-65"/>
      <point x="456" y="-90" type="curve" smooth="yes"/>
      <point x="456" y="-122" type="line" smooth="yes"/>
      <point x="456" y="-157"/>
      <point x="453" y="-176"/>
      <point x="443" y="-202" type="curve"/>
      <point x="460" y="-205"/>
      <point x="505" y="-197"/>
      <point x="516" y="-185" type="curve" smooth="yes"/>
      <point x="552" y="-150"/>
      <point x="565" y="-123"/>
      <point x="565" y="-80" type="curve" smooth="yes"/>
      <point x="565" y="-66" type="line" smooth="yes"/>
      <point x="565" y="3"/>
      <point x="510" y="55"/>
      <point x="439" y="55" type="curve" smooth="yes"/>
      <point x="298" y="55" type="line" smooth="yes"/>
      <point x="280" y="55"/>
      <point x="274" y="61"/>
      <point x="274" y="79" type="curve" smooth="yes"/>
      <point x="274" y="107" type="line" smooth="yes"/>
      <point x="274" y="128"/>
      <point x="280" y="154"/>
      <point x="288" y="170" type="curve"/>
      <point x="288" y="176"/>
      <point x="286" y="181"/>
      <point x="282" y="185" type="curve" smooth="yes"/>
      <point x="243" y="185"/>
      <point x="170" y="112"/>
    </contour>
    <contour>
      <point x="537" y="-113" type="curve"/>
      <point x="461" y="-165"/>
      <point x="411" y="-170"/>
      <point x="332" y="-170" type="curve"/>
      <point x="250" y="-170" type="line"/>
      <point x="178" y="-170"/>
      <point x="144" y="-151"/>
      <point x="144" y="-107" type="curve" smooth="yes"/>
      <point x="144" y="-82" type="line" smooth="yes"/>
      <point x="144" y="-53"/>
      <point x="166" y="-24"/>
      <point x="225" y="-1" type="curve"/>
      <point x="225" y="12"/>
      <point x="216" y="24"/>
      <point x="203" y="24" type="curve"/>
      <point x="102" y="24"/>
      <point x="35" y="-32"/>
      <point x="35" y="-109" type="curve" smooth="yes"/>
      <point x="35" y="-125" type="line" smooth="yes"/>
      <point x="35" y="-196"/>
      <point x="114" y="-250"/>
      <point x="225" y="-250" type="curve"/>
      <point x="284" y="-250" type="line"/>
      <point x="387" y="-250"/>
      <point x="468" y="-234"/>
      <point x="516" y="-185" type="curve"/>
      <point x="542" y="-160"/>
      <point x="551" y="-127"/>
    </contour>
    <contour>
      <point x="449" y="494" type="curve" smooth="yes"/>
      <point x="524" y="556" type="line" smooth="yes"/>
      <point x="551" y="579"/>
      <point x="565" y="594"/>
      <point x="565" y="623" type="curve" smooth="yes"/>
      <point x="565" y="627"/>
      <point x="565" y="636"/>
      <point x="565" y="643" type="curve" smooth="yes"/>
      <point x="565" y="650"/>
      <point x="563" y="653"/>
      <point x="558" y="658" type="curve" smooth="yes"/>
      <point x="539" y="677"/>
      <point x="504" y="685"/>
      <point x="468" y="685" type="curve" smooth="yes"/>
      <point x="455" y="685" type="line"/>
      <point x="455" y="676"/>
      <point x="455" y="664"/>
      <point x="455" y="655" type="curve" smooth="yes"/>
      <point x="455" y="635"/>
      <point x="451" y="623"/>
      <point x="445" y="606" type="curve" smooth="yes"/>
      <point x="410" y="501" type="line"/>
      <point x="420" y="491"/>
      <point x="439" y="486"/>
    </contour>
  </outline>
</glyph>
<glyph name="h" format="1">
  <advance width="600"/>
  <unicode hex="0068"/>
  <outline>
    <contour>
      <point x="195" y="-10" type="line"/>
      <point x="195" y="161"/>
      <point x="195" y="579"/>
      <point x="195" y="720" type="curve" smooth="yes"/>
      <point x="195" y="727"/>
      <point x="193" y="730"/>
      <point x="188" y="735" type="curve" smooth="yes"/>
      <point x="177" y="746"/>
      <point x="133" y="756"/>
      <point x="98" y="756" type="curve" smooth="yes"/>
      <point x="79" y="756" type="line"/>
      <point x="79" y="641"/>
      <point x="79" y="309"/>
      <point x="79" y="194" type="curve" smooth="yes"/>
      <point x="79" y="141"/>
      <point x="79" y="86"/>
      <point x="79" y="32" type="curve" smooth="yes"/>
      <point x="79" y="25"/>
      <point x="81" y="22"/>
      <point x="86" y="17" type="curve" smooth="yes"/>
      <point x="105" y="-2"/>
      <point x="141" y="-10"/>
      <point x="176" y="-10" type="curve" smooth="yes"/>
    </contour>
    <contour>
      <point x="387" y="544" type="curve" smooth="yes"/>
      <point x="321" y="544"/>
      <point x="232" y="479"/>
      <point x="183" y="418" type="curve" smooth="yes"/>
      <point x="159" y="389"/>
      <point x="153" y="371"/>
      <point x="154" y="322" type="curve"/>
      <point x="252" y="423"/>
      <point x="305" y="434"/>
      <point x="381" y="434" type="curve" smooth="yes"/>
      <point x="421" y="434"/>
      <point x="455" y="417"/>
      <point x="483" y="379" type="curve"/>
      <point x="508" y="381"/>
      <point x="521" y="397"/>
      <point x="521" y="414" type="curve" smooth="yes"/>
      <point x="521" y="465"/>
      <point x="450" y="544"/>
    </contour>
    <contour>
      <point x="521" y="-10" type="line"/>
      <point x="521" y="142"/>
      <point x="521" y="262"/>
      <point x="521" y="414" type="curve" smooth="yes"/>
      <point x="521" y="421"/>
      <point x="519" y="424"/>
      <point x="514" y="429" type="curve" smooth="yes"/>
      <point x="495" y="448"/>
      <point x="459" y="456"/>
      <point x="424" y="456" type="curve" smooth="yes"/>
      <point x="405" y="456" type="line"/>
      <point x="405" y="360"/>
      <point x="405" y="291"/>
      <point x="405" y="194" type="curve" smooth="yes"/>
      <point x="405" y="140"/>
      <point x="405" y="86"/>
      <point x="405" y="32" type="curve" smooth="yes"/>
      <point x="405" y="25"/>
      <point x="407" y="22"/>
      <point x="412" y="17" type="curve" smooth="yes"/>
      <point x="431" y="-2"/>
      <point x="467" y="-10"/>
      <point x="502" y="-10" type="curve" smooth="yes"/>
    </contour>
  </outline>
</glyph>
<glyph name="i" format="1">
  <advance width="600"/>
  <unicode hex="0069"/>
  <outline>
    <contour>
      <point x="38" y="530" type="curve"/>
      <point x="38" y="511" type="line" smooth="yes"/>
      <point x="38" y="476"/>
      <point x="46" y="446"/>
      <point x="65" y="427" type="curve" smooth="yes"/>
      <point x="70" y="422"/>
      <point x="73" y="420"/>
      <point x="80" y="420" type="curve"/>
      <point x="121" y="420"/>
      <point x="157" y="420"/>
      <point x="197" y="420" type="curve"/>
      <point x="225" y="420"/>
      <point x="254" y="420"/>
      <point x="274" y="420" type="curve"/>
      <point x="274" y="439" type="line" smooth="yes"/>
      <point x="274" y="474"/>
      <point x="267" y="504"/>
      <point x="247" y="523" type="curve" smooth="yes"/>
      <point x="242" y="528"/>
      <point x="239" y="530"/>
      <point x="232" y="530" type="curve" smooth="yes"/>
      <point x="172" y="530"/>
      <point x="99" y="530"/>
    </contour>
    <contour>
      <point x="331" y="503" type="curve" smooth="yes"/>
      <point x="312" y="522"/>
      <point x="282" y="530"/>
      <point x="247" y="530" type="curve" smooth="yes"/>
      <point x="228" y="530" type="line"/>
      <point x="228" y="143" type="line" smooth="yes"/>
      <point x="228" y="96"/>
      <point x="241" y="70"/>
      <point x="279" y="32" type="curve"/>
      <point x="305" y="6"/>
      <point x="344" y="8"/>
      <point x="354" y="19" type="curve"/>
      <point x="341" y="65"/>
      <point x="338" y="104"/>
      <point x="338" y="158" type="curve" smooth="yes"/>
      <point x="338" y="488" type="line" smooth="yes"/>
      <point x="338" y="495"/>
      <point x="336" y="498"/>
    </contour>
    <contour>
      <point x="567" y="143" type="line"/>
      <point x="551" y="143" type="line"/>
      <point x="515" y="102"/>
      <point x="470" y="90"/>
      <point x="409" y="90" type="curve" smooth="yes"/>
      <point x="354" y="90"/>
      <point x="308" y="92"/>
      <point x="269" y="112" type="curve"/>
      <point x="251" y="97"/>
      <point x="256" y="56"/>
      <point x="279" y="32" type="curve" smooth="yes"/>
      <point x="324" y="-12"/>
      <point x="356" y="-20"/>
      <point x="404" y="-20" type="curve" smooth="yes"/>
      <point x="460" y="-20"/>
      <point x="515" y="-13"/>
      <point x="546" y="18" type="curve" smooth="yes"/>
      <point x="560" y="31"/>
      <point x="567" y="50"/>
      <point x="567" y="75" type="curve"/>
    </contour>
    <contour>
      <point x="354" y="617" type="line"/>
      <point x="354" y="644"/>
      <point x="354" y="683"/>
      <point x="354" y="710" type="curve" smooth="yes"/>
      <point x="354" y="718"/>
      <point x="352" y="721"/>
      <point x="346" y="727" type="curve" smooth="yes"/>
      <point x="328" y="745"/>
      <point x="306" y="751"/>
      <point x="274" y="751" type="curve"/>
      <point x="213" y="751" type="line"/>
      <point x="213" y="724"/>
      <point x="213" y="686"/>
      <point x="213" y="658" type="curve" smooth="yes"/>
      <point x="213" y="650"/>
      <point x="215" y="647"/>
      <point x="221" y="641" type="curve" smooth="yes"/>
      <point x="238" y="624"/>
      <point x="261" y="617"/>
      <point x="293" y="617" type="curve"/>
    </contour>
  </outline>
</glyph>
<glyph name="j" format="1">
  <advance width="600"/>
  <unicode hex="006A"/>
  <outline>
    <contour>
      <point x="50" y="530" type="curve"/>
      <point x="50" y="511" type="line" smooth="yes"/>
      <point x="50" y="476"/>
      <point x="58" y="446"/>
      <point x="77" y="427" type="curve" smooth="yes"/>
      <point x="82" y="422"/>
      <point x="85" y="420"/>
      <point x="92" y="420" type="curve"/>
      <point x="141" y="420"/>
      <point x="255" y="420"/>
      <point x="303" y="420" type="curve"/>
      <point x="334" y="420"/>
      <point x="366" y="420"/>
      <point x="388" y="420" type="curve"/>
      <point x="388" y="439" type="line" smooth="yes"/>
      <point x="388" y="474"/>
      <point x="381" y="504"/>
      <point x="361" y="523" type="curve" smooth="yes"/>
      <point x="356" y="528"/>
      <point x="353" y="530"/>
      <point x="346" y="530" type="curve" smooth="yes"/>
      <point x="276" y="530"/>
      <point x="120" y="530"/>
    </contour>
    <contour>
      <point x="251" y="-250" type="line"/>
      <point x="319" y="-250"/>
      <point x="440" y="-176"/>
      <point x="440" y="0" type="curve" smooth="yes"/>
      <point x="440" y="164"/>
      <point x="440" y="330"/>
      <point x="440" y="494" type="curve" smooth="yes"/>
      <point x="440" y="501"/>
      <point x="438" y="504"/>
      <point x="433" y="509" type="curve" smooth="yes"/>
      <point x="422" y="520"/>
      <point x="384" y="530"/>
      <point x="349" y="530" type="curve" smooth="yes"/>
      <point x="330" y="530" type="line"/>
      <point x="330" y="425"/>
      <point x="330" y="298"/>
      <point x="330" y="214" type="curve"/>
      <point x="330" y="142"/>
      <point x="330" y="71"/>
      <point x="330" y="0" type="curve" smooth="yes"/>
      <point x="330" y="-108"/>
      <point x="267" y="-145"/>
      <point x="178" y="-149" type="curve"/>
      <point x="178" y="-210"/>
      <point x="206" y="-250"/>
      <point x="226" y="-250" type="curve" smooth="yes"/>
    </contour>
    <contour>
      <point x="62" y="-140" type="curve"/>
      <point x="62" y="-159" type="line" smooth="yes"/>
      <point x="62" y="-194"/>
      <point x="70" y="-224"/>
      <point x="89" y="-243" type="curve" smooth="yes"/>
      <point x="94" y="-248"/>
      <point x="97" y="-250"/>
      <point x="104" y="-250" type="curve"/>
      <point x="157" y="-250"/>
      <point x="199" y="-250"/>
      <point x="251" y="-250" type="curve" smooth="yes"/>
      <point x="303" y="-250"/>
      <point x="347" y="-191"/>
      <point x="346" y="-140" type="curve"/>
      <point x="266" y="-140"/>
      <point x="141" y="-140"/>
    </contour>
    <contour>
      <point x="450" y="617" type="line"/>
      <point x="450" y="644"/>
      <point x="450" y="683"/>
      <point x="450" y="710" type="curve" smooth="yes"/>
      <point x="450" y="718"/>
      <point x="448" y="721"/>
      <point x="442" y="727" type="curve" smooth="yes"/>
      <point x="424" y="745"/>
      <point x="402" y="751"/>
      <point x="370" y="751" type="curve"/>
      <point x="309" y="751" type="line"/>
      <point x="309" y="724"/>
      <point x="309" y="686"/>
      <point x="309" y="658" type="curve" smooth="yes"/>
      <point x="309" y="650"/>
      <point x="311" y="647"/>
      <point x="317" y="641" type="curve" smooth="yes"/>
      <point x="334" y="624"/>
      <point x="357" y="617"/>
      <point x="389" y="617" type="curve"/>
    </contour>
  </outline>
</glyph>
<glyph name="k" format="1">
  <advance width="600"/>
  <unicode hex="006B"/>
  <outline>
    <contour>
      <point x="189" y="-10" type="line"/>
      <point x="189" y="161"/>
      <point x="189" y="579"/>
      <point x="189" y="720" type="curve" smooth="yes"/>
      <point x="189" y="727"/>
      <point x="187" y="730"/>
      <point x="182" y="735" type="curve" smooth="yes"/>
      <point x="171" y="746"/>
      <point x="133" y="756"/>
      <point x="98" y="756" type="curve" smooth="yes"/>
      <point x="79" y="756" type="line"/>
      <point x="79" y="641"/>
      <point x="79" y="309"/>
      <point x="79" y="194" type="curve" smooth="yes"/>
      <point x="79" y="141"/>
      <point x="79" y="86"/>
      <point x="79" y="32" type="curve" smooth="yes"/>
      <point x="79" y="25"/>
      <point x="81" y="22"/>
      <point x="86" y="17" type="curve" smooth="yes"/>
      <point x="105" y="-2"/>
      <point x="135" y="-10"/>
      <point x="170" y="-10" type="curve" smooth="yes"/>
    </contour>
    <contour>
      <point x="302" y="298" type="line"/>
      <point x="249" y="253"/>
      <point x="242" y="214"/>
      <point x="256" y="198" type="curve" smooth="yes"/>
      <point x="373" y="60" type="line" smooth="yes"/>
      <point x="426" y="-3"/>
      <point x="455" y="-20"/>
      <point x="506" y="-20" type="curve" smooth="yes"/>
      <point x="527" y="-20"/>
      <point x="550" y="-6"/>
      <point x="550" y="14" type="curve" smooth="yes"/>
      <point x="550" y="110" type="line"/>
      <point x="531" y="110" type="line"/>
      <point x="523" y="106"/>
      <point x="510" y="102"/>
      <point x="500" y="102" type="curve" smooth="yes"/>
      <point x="471" y="102"/>
      <point x="455" y="111"/>
      <point x="434" y="137" type="curve" smooth="yes"/>
    </contour>
    <contour>
      <point x="447" y="540" type="curve" smooth="yes"/>
      <point x="429" y="540" type="line"/>
      <point x="364" y="365"/>
      <point x="258" y="271"/>
      <point x="121" y="221" type="curve"/>
      <point x="121" y="181"/>
      <point x="142" y="160"/>
      <point x="162" y="164" type="curve" smooth="yes"/>
      <point x="302" y="192"/>
      <point x="438" y="284"/>
      <point x="526" y="464" type="curve" smooth="yes"/>
      <point x="534" y="481"/>
      <point x="535" y="487"/>
      <point x="535" y="493" type="curve" smooth="yes"/>
      <point x="535" y="516"/>
      <point x="493" y="540"/>
    </contour>
  </outline>
</glyph>
<glyph name="l" format="1">
  <advance width="600"/>
  <unicode hex="006C"/>
  <outline>
    <contour>
      <point x="38" y="750" type="curve"/>
      <point x="38" y="731" type="line" smooth="yes"/>
      <point x="38" y="696"/>
      <point x="46" y="666"/>
      <point x="65" y="647" type="curve" smooth="yes"/>
      <point x="70" y="642"/>
      <point x="73" y="640"/>
      <point x="80" y="640" type="curve"/>
      <point x="146" y="640"/>
      <point x="219" y="640"/>
      <point x="268" y="640" type="curve"/>
      <point x="268" y="659" type="line" smooth="yes"/>
      <point x="268" y="694"/>
      <point x="261" y="724"/>
      <point x="241" y="743" type="curve" smooth="yes"/>
      <point x="236" y="748"/>
      <point x="233" y="750"/>
      <point x="226" y="750" type="curve" smooth="yes"/>
      <point x="167" y="750"/>
      <point x="97" y="750"/>
    </contour>
    <contour>
      <point x="325" y="723" type="curve" smooth="yes"/>
      <point x="306" y="742"/>
      <point x="276" y="750"/>
      <point x="241" y="750" type="curve" smooth="yes"/>
      <point x="222" y="750" type="line"/>
      <point x="222" y="143" type="line" smooth="yes"/>
      <point x="222" y="96"/>
      <point x="235" y="70"/>
      <point x="273" y="32" type="curve"/>
      <point x="299" y="6"/>
      <point x="338" y="8"/>
      <point x="348" y="19" type="curve"/>
      <point x="335" y="65"/>
      <point x="332" y="104"/>
      <point x="332" y="158" type="curve" smooth="yes"/>
      <point x="332" y="708" type="line" smooth="yes"/>
      <point x="332" y="715"/>
      <point x="330" y="718"/>
    </contour>
    <contour>
      <point x="567" y="143" type="line"/>
      <point x="551" y="143" type="line"/>
      <point x="515" y="102"/>
      <point x="470" y="90"/>
      <point x="409" y="90" type="curve" smooth="yes"/>
      <point x="351" y="90"/>
      <point x="304" y="92"/>
      <point x="263" y="112" type="curve"/>
      <point x="245" y="97"/>
      <point x="250" y="56"/>
      <point x="273" y="32" type="curve" smooth="yes"/>
      <point x="319" y="-14"/>
      <point x="354" y="-20"/>
      <point x="404" y="-20" type="curve" smooth="yes"/>
      <point x="460" y="-20"/>
      <point x="515" y="-13"/>
      <point x="546" y="18" type="curve" smooth="yes"/>
      <point x="560" y="31"/>
      <point x="567" y="50"/>
      <point x="567" y="75" type="curve"/>
    </contour>
  </outline>
</glyph>
<glyph name="m" format="1">
  <advance width="600"/>
  <unicode hex="006D"/>
  <outline>
    <contour>
      <point x="157" y="-10" type="line"/>
      <point x="157" y="150"/>
      <point x="157" y="311"/>
      <point x="157" y="471" type="curve" smooth="yes"/>
      <point x="157" y="487"/>
      <point x="150" y="498"/>
      <point x="135" y="513" type="curve" smooth="yes"/>
      <point x="118" y="530"/>
      <point x="92" y="540"/>
      <point x="69" y="540" type="curve" smooth="yes"/>
      <point x="50" y="540" type="line"/>
      <point x="50" y="425"/>
      <point x="50" y="309"/>
      <point x="50" y="194" type="curve" smooth="yes"/>
      <point x="50" y="141"/>
      <point x="50" y="86"/>
      <point x="50" y="32" type="curve" smooth="yes"/>
      <point x="50" y="25"/>
      <point x="52" y="22"/>
      <point x="57" y="17" type="curve" smooth="yes"/>
      <point x="76" y="-2"/>
      <point x="97" y="-10"/>
      <point x="132" y="-10" type="curve" smooth="yes"/>
    </contour>
    <contour>
      <point x="268" y="544" type="curve" smooth="yes"/>
      <point x="228" y="544"/>
      <point x="192" y="514"/>
      <point x="157" y="445" type="curve" smooth="yes"/>
      <point x="141" y="412"/>
      <point x="140" y="388"/>
      <point x="144" y="368" type="curve"/>
      <point x="185" y="414"/>
      <point x="217" y="431"/>
      <point x="248" y="431" type="curve" smooth="yes"/>
      <point x="271" y="431"/>
      <point x="284" y="420"/>
      <point x="300" y="401" type="curve"/>
      <point x="321" y="413"/>
      <point x="333" y="442"/>
      <point x="334" y="470" type="curve" smooth="yes"/>
      <point x="334" y="510"/>
      <point x="294" y="544"/>
    </contour>
    <contour>
      <point x="334" y="0" type="line"/>
      <point x="334" y="166"/>
      <point x="334" y="304"/>
      <point x="334" y="470" type="curve" smooth="yes"/>
      <point x="334" y="477"/>
      <point x="332" y="480"/>
      <point x="327" y="485" type="curve" smooth="yes"/>
      <point x="318" y="494"/>
      <point x="305" y="506"/>
      <point x="285" y="506" type="curve" smooth="yes"/>
      <point x="266" y="506" type="line"/>
      <point x="266" y="393"/>
      <point x="266" y="307"/>
      <point x="266" y="194" type="curve" smooth="yes"/>
      <point x="266" y="142"/>
      <point x="266" y="88"/>
      <point x="266" y="36" type="curve" smooth="yes"/>
      <point x="266" y="29"/>
      <point x="268" y="26"/>
      <point x="273" y="21" type="curve" smooth="yes"/>
      <point x="286" y="8"/>
      <point x="295" y="0"/>
      <point x="315" y="0" type="curve" smooth="yes"/>
    </contour>
    <contour>
      <point x="473" y="544" type="curve" smooth="yes"/>
      <point x="422" y="544"/>
      <point x="371" y="507"/>
      <point x="334" y="445" type="curve" smooth="yes"/>
      <point x="317" y="416"/>
      <point x="310" y="381"/>
      <point x="317" y="367" type="curve"/>
      <point x="361" y="415"/>
      <point x="395" y="431"/>
      <point x="431" y="431" type="curve" smooth="yes"/>
      <point x="462" y="431"/>
      <point x="486" y="412"/>
      <point x="509" y="384" type="curve"/>
      <point x="536" y="402"/>
      <point x="550" y="438"/>
      <point x="550" y="470" type="curve" smooth="yes"/>
      <point x="550" y="496"/>
      <point x="506" y="544"/>
    </contour>
    <contour>
      <point x="550" y="-10" type="line"/>
      <point x="550" y="160"/>
      <point x="550" y="300"/>
      <point x="550" y="470" type="curve" smooth="yes"/>
      <point x="550" y="477"/>
      <point x="548" y="480"/>
      <point x="543" y="485" type="curve" smooth="yes"/>
      <point x="531" y="497"/>
      <point x="500" y="506"/>
      <point x="462" y="506" type="curve" smooth="yes"/>
      <point x="443" y="506" type="line"/>
      <point x="443" y="393"/>
      <point x="443" y="307"/>
      <point x="443" y="194" type="curve" smooth="yes"/>
      <point x="443" y="141"/>
      <point x="443" y="86"/>
      <point x="443" y="32" type="curve" smooth="yes"/>
      <point x="443" y="25"/>
      <point x="445" y="22"/>
      <point x="450" y="17" type="curve" smooth="yes"/>
      <point x="469" y="-2"/>
      <point x="493" y="-10"/>
      <point x="531" y="-10" type="curve" smooth="yes"/>
    </contour>
  </outline>
</glyph>
<glyph name="n" format="1">
  <advance width="600"/>
  <unicode hex="006E"/>
  <outline>
    <contour>
      <point x="195" y="-10" type="line"/>
      <point x="195" y="161"/>
      <point x="195" y="333"/>
      <point x="195" y="504" type="curve" smooth="yes"/>
      <point x="195" y="511"/>
      <point x="193" y="514"/>
      <point x="188" y="519" type="curve" smooth="yes"/>
      <point x="177" y="530"/>
      <point x="133" y="540"/>
      <point x="98" y="540" type="curve" smooth="yes"/>
      <point x="79" y="540" type="line"/>
      <point x="79" y="425"/>
      <point x="79" y="309"/>
      <point x="79" y="194" type="curve" smooth="yes"/>
      <point x="79" y="140"/>
      <point x="79" y="86"/>
      <point x="79" y="32" type="curve" smooth="yes"/>
      <point x="79" y="25"/>
      <point x="81" y="22"/>
      <point x="86" y="17" type="curve" smooth="yes"/>
      <point x="105" y="-2"/>
      <point x="141" y="-10"/>
      <point x="176" y="-10" type="curve" smooth="yes"/>
    </contour>
    <contour>
      <point x="387" y="544" type="curve" smooth="yes"/>
      <point x="321" y="544"/>
      <point x="232" y="479"/>
      <point x="183" y="418" type="curve" smooth="yes"/>
      <point x="159" y="389"/>
      <point x="153" y="371"/>
      <point x="154" y="322" type="curve"/>
      <point x="246" y="405"/>
      <point x="305" y="428"/>
      <point x="381" y="428" type="curve" smooth="yes"/>
      <point x="421" y="428"/>
      <point x="455" y="411"/>
      <point x="483" y="373" type="curve"/>
      <point x="508" y="375"/>
      <point x="521" y="397"/>
      <point x="521" y="414" type="curve" smooth="yes"/>
      <point x="521" y="465"/>
      <point x="450" y="544"/>
    </contour>
    <contour>
      <point x="521" y="-10" type="line"/>
      <point x="521" y="142"/>
      <point x="521" y="262"/>
      <point x="521" y="414" type="curve" smooth="yes"/>
      <point x="521" y="421"/>
      <point x="519" y="424"/>
      <point x="514" y="429" type="curve" smooth="yes"/>
      <point x="495" y="448"/>
      <point x="459" y="456"/>
      <point x="424" y="456" type="curve" smooth="yes"/>
      <point x="405" y="456" type="line"/>
      <point x="405" y="360"/>
      <point x="405" y="291"/>
      <point x="405" y="194" type="curve" smooth="yes"/>
      <point x="405" y="140"/>
      <point x="405" y="86"/>
      <point x="405" y="32" type="curve" smooth="yes"/>
      <point x="405" y="25"/>
      <point x="407" y="22"/>
      <point x="412" y="17" type="curve" smooth="yes"/>
      <point x="431" y="-2"/>
      <point x="467" y="-10"/>
      <point x="502" y="-10" type="curve" smooth="yes"/>
    </contour>
  </outline>
</glyph>
<glyph name="o" format="1">
  <advance width="600"/>
  <unicode hex="006F"/>
  <outline>
    <contour>
      <point x="294" y="550" type="curve" smooth="yes"/>
      <point x="157" y="550"/>
      <point x="56" y="441"/>
      <point x="56" y="286" type="curve" smooth="yes"/>
      <point x="56" y="242" type="line" smooth="yes"/>
      <point x="56" y="86"/>
      <point x="160" y="-20"/>
      <point x="286" y="-20" type="curve" smooth="yes"/>
      <point x="306" y="-20" type="line" smooth="yes"/>
      <point x="335" y="-20"/>
      <point x="352" y="10"/>
      <point x="352" y="48" type="curve"/>
      <point x="211" y="57"/>
      <point x="166" y="134"/>
      <point x="166" y="224" type="curve" smooth="yes"/>
      <point x="166" y="268" type="line" smooth="yes"/>
      <point x="166" y="358"/>
      <point x="218" y="441"/>
      <point x="318" y="441" type="curve" smooth="yes"/>
      <point x="369" y="441"/>
      <point x="393" y="434"/>
      <point x="425" y="418" type="curve"/>
      <point x="436" y="427"/>
      <point x="439" y="432"/>
      <point x="439" y="451" type="curve"/>
      <point x="439" y="501"/>
      <point x="366" y="550"/>
    </contour>
    <contour>
      <point x="306" y="-20" type="curve" smooth="yes"/>
      <point x="443" y="-20"/>
      <point x="544" y="89"/>
      <point x="544" y="244" type="curve" smooth="yes"/>
      <point x="544" y="288" type="line" smooth="yes"/>
      <point x="544" y="444"/>
      <point x="440" y="550"/>
      <point x="314" y="550" type="curve" smooth="yes"/>
      <point x="294" y="550" type="line" smooth="yes"/>
      <point x="265" y="550"/>
      <point x="248" y="520"/>
      <point x="248" y="482" type="curve"/>
      <point x="389" y="473"/>
      <point x="434" y="396"/>
      <point x="434" y="306" type="curve" smooth="yes"/>
      <point x="434" y="262" type="line" smooth="yes"/>
      <point x="434" y="172"/>
      <point x="382" y="89"/>
      <point x="282" y="89" type="curve" smooth="yes"/>
      <point x="231" y="89"/>
      <point x="207" y="96"/>
      <point x="175" y="112" type="curve"/>
      <point x="164" y="103"/>
      <point x="161" y="98"/>
      <point x="161" y="79" type="curve"/>
      <point x="161" y="29"/>
      <point x="234" y="-20"/>
    </contour>
  </outline>
</glyph>
<glyph name="p" format="1">
  <advance width="600"/>
  <unicode hex="0070"/>
  <outline>
    <contour>
      <point x="195" y="-235" type="line"/>
      <point x="195" y="-14"/>
      <point x="195" y="279"/>
      <point x="195" y="500" type="curve" smooth="yes"/>
      <point x="195" y="507"/>
      <point x="193" y="510"/>
      <point x="188" y="515" type="curve" smooth="yes"/>
      <point x="177" y="526"/>
      <point x="133" y="536"/>
      <point x="98" y="536" type="curve" smooth="yes"/>
      <point x="79" y="536" type="line"/>
      <point x="79" y="423"/>
      <point x="79" y="307"/>
      <point x="79" y="194" type="curve" smooth="yes"/>
      <point x="79" y="91"/>
      <point x="79" y="-90"/>
      <point x="79" y="-193" type="curve" smooth="yes"/>
      <point x="79" y="-200"/>
      <point x="81" y="-203"/>
      <point x="86" y="-208" type="curve" smooth="yes"/>
      <point x="105" y="-227"/>
      <point x="141" y="-235"/>
      <point x="176" y="-235" type="curve" smooth="yes"/>
    </contour>
    <contour>
      <point x="389" y="544" type="curve" smooth="yes"/>
      <point x="320" y="544"/>
      <point x="237" y="486"/>
      <point x="183" y="418" type="curve" smooth="yes"/>
      <point x="159" y="389"/>
      <point x="153" y="371"/>
      <point x="154" y="322" type="curve"/>
      <point x="246" y="405"/>
      <point x="306" y="428"/>
      <point x="383" y="428" type="curve" smooth="yes"/>
      <point x="439" y="428"/>
      <point x="475" y="384"/>
      <point x="501" y="318" type="curve"/>
      <point x="534" y="319"/>
      <point x="550" y="340"/>
      <point x="550" y="356" type="curve" smooth="yes"/>
      <point x="550" y="455"/>
      <point x="466" y="544"/>
    </contour>
    <contour>
      <point x="330" y="-20" type="curve" smooth="yes"/>
      <point x="474" y="-20"/>
      <point x="550" y="124"/>
      <point x="550" y="318" type="curve" smooth="yes"/>
      <point x="550" y="356" type="line" smooth="yes"/>
      <point x="550" y="402"/>
      <point x="511" y="470"/>
      <point x="462" y="470" type="curve"/>
      <point x="429" y="470"/>
      <point x="405" y="462"/>
      <point x="404" y="439" type="curve"/>
      <point x="421" y="413"/>
      <point x="431" y="389"/>
      <point x="431" y="340" type="curve" smooth="yes"/>
      <point x="431" y="318" type="line" smooth="yes"/>
      <point x="431" y="179"/>
      <point x="374" y="87"/>
      <point x="285" y="87" type="curve" smooth="yes"/>
      <point x="244" y="87"/>
      <point x="216" y="92"/>
      <point x="182" y="102" type="curve"/>
      <point x="177" y="100"/>
      <point x="175" y="96"/>
      <point x="175" y="89" type="curve"/>
      <point x="175" y="51"/>
      <point x="253" y="-20"/>
    </contour>
  </outline>
</glyph>
<glyph name="q" format="1">
  <advance width="600"/>
  <unicode hex="0071"/>
  <outline>
    <contour>
      <point x="521" y="-235" type="line"/>
      <point x="521" y="-13"/>
      <point x="521" y="282"/>
      <point x="521" y="504" type="curve" smooth="yes"/>
      <point x="521" y="511"/>
      <point x="519" y="514"/>
      <point x="514" y="519" type="curve" smooth="yes"/>
      <point x="503" y="530"/>
      <point x="459" y="540"/>
      <point x="424" y="540" type="curve" smooth="yes"/>
      <point x="405" y="540" type="line"/>
      <point x="405" y="423"/>
      <point x="405" y="303"/>
      <point x="405" y="186" type="curve" smooth="yes"/>
      <point x="405" y="77"/>
      <point x="405" y="-84"/>
      <point x="405" y="-193" type="curve" smooth="yes"/>
      <point x="405" y="-200"/>
      <point x="407" y="-203"/>
      <point x="412" y="-208" type="curve" smooth="yes"/>
      <point x="431" y="-227"/>
      <point x="467" y="-235"/>
      <point x="502" y="-235" type="curve" smooth="yes"/>
    </contour>
    <contour>
      <point x="270" y="550" type="curve" smooth="yes"/>
      <point x="152" y="550"/>
      <point x="54" y="439"/>
      <point x="54" y="226" type="curve" smooth="yes"/>
      <point x="54" y="186" type="line" smooth="yes"/>
      <point x="54" y="139"/>
      <point x="93" y="69"/>
      <point x="153" y="69" type="curve"/>
      <point x="175" y="69"/>
      <point x="191" y="76"/>
      <point x="192" y="96" type="curve"/>
      <point x="179" y="119"/>
      <point x="173" y="153"/>
      <point x="173" y="214" type="curve" smooth="yes"/>
      <point x="173" y="230" type="line" smooth="yes"/>
      <point x="173" y="363"/>
      <point x="215" y="443"/>
      <point x="297" y="443" type="curve" smooth="yes"/>
      <point x="350" y="443"/>
      <point x="377" y="432"/>
      <point x="420" y="400" type="curve"/>
      <point x="429" y="403"/>
      <point x="430" y="423"/>
      <point x="423" y="436" type="curve"/>
      <point x="404" y="484"/>
      <point x="343" y="550"/>
    </contour>
    <contour>
      <point x="211" y="-14" type="curve" smooth="yes"/>
      <point x="277" y="-14"/>
      <point x="369" y="48"/>
      <point x="417" y="108" type="curve" smooth="yes"/>
      <point x="441" y="137"/>
      <point x="447" y="155"/>
      <point x="446" y="204" type="curve"/>
      <point x="355" y="122"/>
      <point x="294" y="102"/>
      <point x="217" y="102" type="curve" smooth="yes"/>
      <point x="156" y="102"/>
      <point x="132" y="160"/>
      <point x="98" y="234" type="curve"/>
      <point x="67" y="232"/>
      <point x="54" y="207"/>
      <point x="54" y="186" type="curve" smooth="yes"/>
      <point x="54" y="82"/>
      <point x="122" y="-14"/>
    </contour>
  </outline>
</glyph>
<glyph name="r" format="1">
  <advance width="600"/>
  <unicode hex="0072"/>
  <outline>
    <contour>
      <point x="400" y="550" type="curve" smooth="yes"/>
      <point x="345" y="550"/>
      <point x="274" y="482"/>
      <point x="228" y="419" type="curve" smooth="yes"/>
      <point x="205" y="388"/>
      <point x="198" y="372"/>
      <point x="199" y="322" type="curve"/>
      <point x="284" y="399"/>
      <point x="328" y="428"/>
      <point x="394" y="428" type="curve" smooth="yes"/>
      <point x="434" y="428"/>
      <point x="468" y="411"/>
      <point x="496" y="373" type="curve"/>
      <point x="521" y="375"/>
      <point x="534" y="397"/>
      <point x="534" y="414" type="curve" smooth="yes"/>
      <point x="534" y="468"/>
      <point x="463" y="550"/>
    </contour>
    <contour>
      <point x="534" y="231" type="line"/>
      <point x="534" y="296"/>
      <point x="534" y="348"/>
      <point x="534" y="414" type="curve" smooth="yes"/>
      <point x="534" y="421"/>
      <point x="532" y="424"/>
      <point x="527" y="429" type="curve" smooth="yes"/>
      <point x="508" y="448"/>
      <point x="472" y="456"/>
      <point x="437" y="456" type="curve" smooth="yes"/>
      <point x="418" y="456" type="line"/>
      <point x="418" y="392"/>
      <point x="418" y="338"/>
      <point x="418" y="273" type="curve" smooth="yes"/>
      <point x="418" y="266"/>
      <point x="420" y="263"/>
      <point x="425" y="258" type="curve" smooth="yes"/>
      <point x="444" y="239"/>
      <point x="480" y="231"/>
      <point x="515" y="231" type="curve" smooth="yes"/>
    </contour>
    <contour>
      <point x="35" y="530" type="curve"/>
      <point x="35" y="511" type="line" smooth="yes"/>
      <point x="35" y="464"/>
      <point x="40" y="440"/>
      <point x="53" y="427" type="curve" smooth="yes"/>
      <point x="58" y="422"/>
      <point x="61" y="420"/>
      <point x="68" y="420" type="curve"/>
      <point x="113" y="420"/>
      <point x="138" y="420"/>
      <point x="182" y="420" type="curve"/>
      <point x="182" y="439" type="line" smooth="yes"/>
      <point x="182" y="460"/>
      <point x="167" y="500"/>
      <point x="143" y="523" type="curve" smooth="yes"/>
      <point x="138" y="528"/>
      <point x="135" y="530"/>
      <point x="128" y="530" type="curve" smooth="yes"/>
      <point x="108" y="530"/>
      <point x="56" y="530"/>
    </contour>
    <contour>
      <point x="240" y="-10" type="line"/>
      <point x="240" y="121"/>
      <point x="240" y="252"/>
      <point x="240" y="384" type="curve"/>
      <point x="240" y="447"/>
      <point x="196" y="530"/>
      <point x="149" y="530" type="curve" smooth="yes"/>
      <point x="124" y="530" type="line"/>
      <point x="124" y="448"/>
      <point x="124" y="299"/>
      <point x="124" y="223" type="curve" smooth="yes"/>
      <point x="124" y="159"/>
      <point x="124" y="95"/>
      <point x="124" y="32" type="curve"/>
      <point x="124" y="25"/>
      <point x="126" y="22"/>
      <point x="131" y="17" type="curve" smooth="yes"/>
      <point x="150" y="-2"/>
      <point x="186" y="-10"/>
      <point x="221" y="-10" type="curve" smooth="yes"/>
    </contour>
  </outline>
</glyph>
<glyph name="s" format="1">
  <advance width="600"/>
  <unicode hex="0073"/>
  <outline>
    <contour>
      <point x="375" y="550" type="curve" smooth="yes"/>
      <point x="236" y="550"/>
      <point x="85" y="467"/>
      <point x="85" y="369" type="curve" smooth="yes"/>
      <point x="85" y="346" type="line" smooth="yes"/>
      <point x="85" y="310"/>
      <point x="142" y="296"/>
      <point x="198" y="296" type="curve"/>
      <point x="195" y="312"/>
      <point x="195" y="339"/>
      <point x="195" y="356" type="curve" smooth="yes"/>
      <point x="195" y="403"/>
      <point x="285" y="440"/>
      <point x="370" y="440" type="curve" smooth="yes"/>
      <point x="428" y="440"/>
      <point x="467" y="430"/>
      <point x="496" y="414" type="curve"/>
      <point x="515" y="414" type="line"/>
      <point x="515" y="503" type="line"/>
      <point x="515" y="529"/>
      <point x="460" y="550"/>
    </contour>
    <contour>
      <point x="390" y="291" type="curve" smooth="yes"/>
      <point x="296" y="310" type="line" smooth="yes"/>
      <point x="211" y="326"/>
      <point x="195" y="336"/>
      <point x="195" y="356" type="curve" smooth="yes"/>
      <point x="195" y="370"/>
      <point x="197" y="395"/>
      <point x="214" y="415" type="curve"/>
      <point x="134" y="410"/>
      <point x="85" y="384"/>
      <point x="85" y="346" type="curve"/>
      <point x="85" y="291"/>
      <point x="131" y="252"/>
      <point x="245" y="228" type="curve" smooth="yes"/>
      <point x="352" y="204" type="line" smooth="yes"/>
      <point x="438" y="186"/>
      <point x="464" y="159"/>
      <point x="479" y="107" type="curve"/>
      <point x="516" y="106"/>
      <point x="540" y="134"/>
      <point x="540" y="160" type="curve"/>
      <point x="540" y="228"/>
      <point x="495" y="270"/>
    </contour>
    <contour>
      <point x="308" y="-20" type="line" smooth="yes"/>
      <point x="454" y="-20"/>
      <point x="540" y="34"/>
      <point x="540" y="120" type="curve" smooth="yes"/>
      <point x="540" y="160" type="line"/>
      <point x="540" y="181"/>
      <point x="511" y="185"/>
      <point x="475" y="170" type="curve"/>
      <point x="465" y="116"/>
      <point x="416" y="90"/>
      <point x="300" y="90" type="curve" smooth="yes"/>
      <point x="189" y="90"/>
      <point x="137" y="101"/>
      <point x="80" y="145" type="curve"/>
      <point x="61" y="145" type="line"/>
      <point x="61" y="116"/>
      <point x="61" y="86"/>
      <point x="61" y="56" type="curve"/>
      <point x="61" y="15"/>
      <point x="139" y="-20"/>
      <point x="279" y="-20" type="curve" smooth="yes"/>
    </contour>
  </outline>
</glyph>
<glyph name="t" format="1">
  <advance width="600"/>
  <unicode hex="0074"/>
  <outline>
    <contour>
      <point x="539" y="160" type="line"/>
      <point x="523" y="160" type="line"/>
      <point x="481" y="111"/>
      <point x="428" y="90"/>
      <point x="356" y="90" type="curve" smooth="yes"/>
      <point x="305" y="90"/>
      <point x="264" y="94"/>
      <point x="226" y="112" type="curve"/>
      <point x="204" y="97"/>
      <point x="211" y="58"/>
      <point x="238" y="31" type="curve" smooth="yes"/>
      <point x="277" y="-8"/>
      <point x="298" y="-20"/>
      <point x="335" y="-20" type="curve" smooth="yes"/>
      <point x="345" y="-20"/>
      <point x="359" y="-20"/>
      <point x="369" y="-20" type="curve" smooth="yes"/>
      <point x="429" y="-20"/>
      <point x="485" y="1"/>
      <point x="516" y="32" type="curve" smooth="yes"/>
      <point x="531" y="46"/>
      <point x="539" y="65"/>
      <point x="539" y="92" type="curve"/>
    </contour>
    <contour>
      <point x="35" y="530" type="curve"/>
      <point x="35" y="487" type="line" smooth="yes"/>
      <point x="35" y="464"/>
      <point x="42" y="441"/>
      <point x="56" y="427" type="curve" smooth="yes"/>
      <point x="61" y="422"/>
      <point x="64" y="420"/>
      <point x="71" y="420" type="curve"/>
      <point x="134" y="420"/>
      <point x="203" y="420"/>
      <point x="266" y="420" type="curve"/>
      <point x="347" y="420"/>
      <point x="459" y="420"/>
      <point x="540" y="420" type="curve"/>
      <point x="540" y="439" type="line" smooth="yes"/>
      <point x="540" y="474"/>
      <point x="532" y="504"/>
      <point x="513" y="523" type="curve" smooth="yes"/>
      <point x="508" y="528"/>
      <point x="505" y="530"/>
      <point x="498" y="530" type="curve" smooth="yes"/>
      <point x="354" y="530"/>
      <point x="179" y="530"/>
    </contour>
    <contour>
      <point x="288" y="673" type="curve" smooth="yes"/>
      <point x="269" y="692"/>
      <point x="239" y="700"/>
      <point x="204" y="700" type="curve" smooth="yes"/>
      <point x="185" y="700" type="line"/>
      <point x="185" y="143" type="line" smooth="yes"/>
      <point x="185" y="96"/>
      <point x="199" y="70"/>
      <point x="238" y="31" type="curve"/>
      <point x="263" y="6"/>
      <point x="295" y="6"/>
      <point x="305" y="25" type="curve"/>
      <point x="298" y="64"/>
      <point x="295" y="107"/>
      <point x="295" y="158" type="curve" smooth="yes"/>
      <point x="295" y="658" type="line" smooth="yes"/>
      <point x="295" y="665"/>
      <point x="293" y="668"/>
    </contour>
  </outline>
</glyph>
<glyph name="u" format="1">
  <advance width="600"/>
  <unicode hex="0075"/>
  <outline>
    <contour>
      <point x="405" y="540" type="line"/>
      <point x="405" y="369"/>
      <point x="405" y="197"/>
      <point x="405" y="26" type="curve" smooth="yes"/>
      <point x="405" y="19"/>
      <point x="407" y="16"/>
      <point x="412" y="11" type="curve" smooth="yes"/>
      <point x="423" y="0"/>
      <point x="467" y="-10"/>
      <point x="502" y="-10" type="curve" smooth="yes"/>
      <point x="521" y="-10" type="line"/>
      <point x="521" y="105"/>
      <point x="521" y="221"/>
      <point x="521" y="336" type="curve" smooth="yes"/>
      <point x="521" y="390"/>
      <point x="521" y="444"/>
      <point x="521" y="498" type="curve" smooth="yes"/>
      <point x="521" y="505"/>
      <point x="519" y="508"/>
      <point x="514" y="513" type="curve" smooth="yes"/>
      <point x="495" y="532"/>
      <point x="459" y="540"/>
      <point x="424" y="540" type="curve" smooth="yes"/>
    </contour>
    <contour>
      <point x="213" y="-14" type="curve" smooth="yes"/>
      <point x="279" y="-14"/>
      <point x="368" y="51"/>
      <point x="417" y="112" type="curve" smooth="yes"/>
      <point x="441" y="141"/>
      <point x="447" y="159"/>
      <point x="446" y="208" type="curve"/>
      <point x="354" y="125"/>
      <point x="295" y="102"/>
      <point x="219" y="102" type="curve" smooth="yes"/>
      <point x="179" y="102"/>
      <point x="145" y="119"/>
      <point x="117" y="157" type="curve"/>
      <point x="92" y="155"/>
      <point x="79" y="133"/>
      <point x="79" y="116" type="curve" smooth="yes"/>
      <point x="79" y="65"/>
      <point x="150" y="-14"/>
    </contour>
    <contour>
      <point x="79" y="540" type="line"/>
      <point x="79" y="388"/>
      <point x="79" y="268"/>
      <point x="79" y="116" type="curve" smooth="yes"/>
      <point x="79" y="109"/>
      <point x="81" y="106"/>
      <point x="86" y="101" type="curve" smooth="yes"/>
      <point x="105" y="82"/>
      <point x="141" y="74"/>
      <point x="176" y="74" type="curve" smooth="yes"/>
      <point x="195" y="74" type="line"/>
      <point x="195" y="170"/>
      <point x="195" y="239"/>
      <point x="195" y="336" type="curve" smooth="yes"/>
      <point x="195" y="390"/>
      <point x="195" y="444"/>
      <point x="195" y="498" type="curve" smooth="yes"/>
      <point x="195" y="505"/>
      <point x="193" y="508"/>
      <point x="188" y="513" type="curve" smooth="yes"/>
      <point x="169" y="532"/>
      <point x="133" y="540"/>
      <point x="98" y="540" type="curve" smooth="yes"/>
    </contour>
  </outline>
</glyph>
<glyph name="v" format="1">
  <advance width="600"/>
  <unicode hex="0076"/>
  <outline>
    <contour>
      <point x="445" y="540" type="curve" smooth="yes"/>
      <point x="427" y="540" type="line"/>
      <point x="402" y="269"/>
      <point x="369" y="163"/>
      <point x="264" y="75" type="curve" smooth="yes"/>
      <point x="243" y="58"/>
      <point x="257" y="-10"/>
      <point x="304" y="-10" type="curve"/>
      <point x="340" y="-10" type="line"/>
      <point x="452" y="81"/>
      <point x="517" y="248"/>
      <point x="538" y="485" type="curve" smooth="yes"/>
      <point x="541" y="516"/>
      <point x="494" y="540"/>
    </contour>
    <contour>
      <point x="76" y="540" type="curve" smooth="yes"/>
      <point x="58" y="540" type="line"/>
      <point x="81" y="274"/>
      <point x="123" y="126"/>
      <point x="221" y="28" type="curve" smooth="yes"/>
      <point x="253" y="-4"/>
      <point x="279" y="-10"/>
      <point x="304" y="-10" type="curve"/>
      <point x="336" y="-10"/>
      <point x="355" y="4"/>
      <point x="355" y="49" type="curve"/>
      <point x="244" y="129"/>
      <point x="202" y="241"/>
      <point x="177" y="502" type="curve" smooth="yes"/>
      <point x="175" y="524"/>
      <point x="126" y="540"/>
    </contour>
  </outline>
</glyph>
<glyph name="w" format="1">
  <advance width="600"/>
  <unicode hex="0077"/>
  <outline>
    <contour>
      <point x="544" y="513" type="curve" smooth="yes"/>
      <point x="528" y="529"/>
      <point x="500" y="540"/>
      <point x="474" y="540" type="curve" smooth="yes"/>
      <point x="456" y="540" type="line"/>
      <point x="456" y="232"/>
      <point x="441" y="159"/>
      <point x="385" y="61" type="curve"/>
      <point x="387" y="16"/>
      <point x="398" y="-10"/>
      <point x="423" y="-10" type="curve" smooth="yes"/>
      <point x="453" y="-10" type="line"/>
      <point x="522" y="117"/>
      <point x="549" y="245"/>
      <point x="549" y="493" type="curve" smooth="yes"/>
      <point x="549" y="504"/>
      <point x="548" y="509"/>
    </contour>
    <contour>
      <point x="147" y="518" type="curve" smooth="yes"/>
      <point x="135" y="530"/>
      <point x="99" y="540"/>
      <point x="66" y="540" type="curve" smooth="yes"/>
      <point x="48" y="540" type="line"/>
      <point x="48" y="216"/>
      <point x="73" y="87"/>
      <point x="151" y="9" type="curve" smooth="yes"/>
      <point x="164" y="-3"/>
      <point x="180" y="-10"/>
      <point x="195" y="-10" type="curve" smooth="yes"/>
      <point x="203" y="-10"/>
      <point x="225" y="27"/>
      <point x="225" y="60" type="curve"/>
      <point x="168" y="111"/>
      <point x="155" y="190"/>
      <point x="155" y="503" type="curve" smooth="yes"/>
      <point x="155" y="509"/>
      <point x="154" y="510"/>
    </contour>
    <contour>
      <point x="281" y="415" type="curve" smooth="yes"/>
      <point x="270" y="415" type="line"/>
      <point x="270" y="214"/>
      <point x="229" y="150"/>
      <point x="167" y="39" type="curve"/>
      <point x="167" y="14"/>
      <point x="175" y="-10"/>
      <point x="195" y="-10" type="curve" smooth="yes"/>
      <point x="216" y="-10" type="line"/>
      <point x="283" y="100"/>
      <point x="324" y="218"/>
      <point x="324" y="372" type="curve" smooth="yes"/>
      <point x="324" y="401"/>
      <point x="303" y="415"/>
    </contour>
    <contour>
      <point x="334" y="396" type="curve" smooth="yes"/>
      <point x="325" y="405"/>
      <point x="303" y="415"/>
      <point x="281" y="415" type="curve" smooth="yes"/>
      <point x="276" y="415" type="line"/>
      <point x="276" y="198"/>
      <point x="309" y="93"/>
      <point x="381" y="4" type="curve" smooth="yes"/>
      <point x="389" y="-5"/>
      <point x="400" y="-10"/>
      <point x="410" y="-10" type="curve" smooth="yes"/>
      <point x="434" y="-10" type="line" smooth="yes"/>
      <point x="445" y="-10"/>
      <point x="451" y="16"/>
      <point x="451" y="39" type="curve"/>
      <point x="389" y="88"/>
      <point x="340" y="184"/>
      <point x="340" y="382" type="curve" smooth="yes"/>
      <point x="340" y="388"/>
      <point x="339" y="391"/>
    </contour>
  </outline>
</glyph>
<glyph name="x" format="1">
  <advance width="600"/>
  <unicode hex="0078"/>
  <outline>
    <contour>
      <point x="515" y="-10" type="curve" smooth="yes"/>
      <point x="549" y="-10"/>
      <point x="562" y="5"/>
      <point x="562" y="43" type="curve"/>
      <point x="562" y="106" type="line"/>
      <point x="489" y="124"/>
      <point x="436" y="154"/>
      <point x="357" y="233" type="curve" smooth="yes"/>
      <point x="292" y="298"/>
      <point x="238" y="371"/>
      <point x="178" y="502" type="curve" smooth="yes"/>
      <point x="174" y="510"/>
      <point x="172" y="513"/>
      <point x="168" y="518" type="curve" smooth="yes"/>
      <point x="153" y="532"/>
      <point x="120" y="540"/>
      <point x="70" y="540" type="curve" smooth="yes"/>
      <point x="48" y="540" type="line"/>
      <point x="94" y="388"/>
      <point x="175" y="257"/>
      <point x="285" y="145" type="curve" smooth="yes"/>
      <point x="386" y="44"/>
      <point x="468" y="-10"/>
    </contour>
    <contour>
      <point x="550" y="511" type="curve" smooth="yes"/>
      <point x="530" y="531"/>
      <point x="493" y="540"/>
      <point x="461" y="540" type="curve" smooth="yes"/>
      <point x="443" y="540" type="line"/>
      <point x="399" y="395"/>
      <point x="365" y="339"/>
      <point x="284" y="276" type="curve"/>
      <point x="256" y="246"/>
      <point x="285" y="207"/>
      <point x="337" y="207" type="curve"/>
      <point x="457" y="304"/>
      <point x="520" y="384"/>
      <point x="554" y="488" type="curve" smooth="yes"/>
      <point x="557" y="499"/>
      <point x="556" y="505"/>
    </contour>
    <contour>
      <point x="44" y="19" type="curve" smooth="yes"/>
      <point x="64" y="-1"/>
      <point x="97" y="-10"/>
      <point x="130" y="-10" type="curve" smooth="yes"/>
      <point x="148" y="-10" type="line"/>
      <point x="176" y="79"/>
      <point x="213" y="137"/>
      <point x="293" y="200" type="curve"/>
      <point x="314" y="224"/>
      <point x="296" y="265"/>
      <point x="249" y="265" type="curve"/>
      <point x="111" y="171"/>
      <point x="51" y="94"/>
      <point x="40" y="41" type="curve" smooth="yes"/>
      <point x="37" y="30"/>
      <point x="39" y="25"/>
    </contour>
  </outline>
</glyph>
<glyph name="y" format="1">
  <advance width="600"/>
  <unicode hex="0079"/>
  <outline>
    <contour>
      <point x="159" y="518" type="curve" smooth="yes"/>
      <point x="144" y="533"/>
      <point x="102" y="540"/>
      <point x="66" y="540" type="curve" smooth="yes"/>
      <point x="48" y="540" type="line"/>
      <point x="60" y="391" type="line" smooth="yes"/>
      <point x="70" y="273"/>
      <point x="101" y="162"/>
      <point x="186" y="78" type="curve" smooth="yes"/>
      <point x="248" y="16"/>
      <point x="301" y="6"/>
      <point x="341" y="6" type="curve"/>
      <point x="363" y="6"/>
      <point x="384" y="31"/>
      <point x="383" y="96" type="curve"/>
      <point x="342" y="104"/>
      <point x="302" y="115"/>
      <point x="269" y="148" type="curve" smooth="yes"/>
      <point x="213" y="204"/>
      <point x="186" y="269"/>
      <point x="177" y="388" type="curve" smooth="yes"/>
      <point x="168" y="500" type="line" smooth="yes"/>
      <point x="167" y="509"/>
      <point x="165" y="512"/>
    </contour>
    <contour>
      <point x="543" y="504" type="curve" smooth="yes"/>
      <point x="523" y="524"/>
      <point x="490" y="540"/>
      <point x="455" y="540" type="curve" smooth="yes"/>
      <point x="437" y="540" type="line"/>
      <point x="425" y="414" type="line" smooth="yes"/>
      <point x="402" y="165"/>
      <point x="360" y="38"/>
      <point x="239" y="-83" type="curve" smooth="yes"/>
      <point x="212" y="-111"/>
      <point x="183" y="-138"/>
      <point x="123" y="-181" type="curve"/>
      <point x="123" y="-220"/>
      <point x="139" y="-250"/>
      <point x="172" y="-250" type="curve" smooth="yes"/>
      <point x="206" y="-250"/>
      <point x="246" y="-238"/>
      <point x="288" y="-196" type="curve" smooth="yes"/>
      <point x="436" y="-49"/>
      <point x="515" y="124"/>
      <point x="538" y="376" type="curve" smooth="yes"/>
      <point x="548" y="483" type="line" smooth="yes"/>
      <point x="549" y="493"/>
      <point x="548" y="500"/>
    </contour>
    <contour>
      <point x="62" y="-140" type="curve"/>
      <point x="62" y="-159" type="line" smooth="yes"/>
      <point x="62" y="-194"/>
      <point x="70" y="-224"/>
      <point x="89" y="-243" type="curve" smooth="yes"/>
      <point x="94" y="-248"/>
      <point x="97" y="-250"/>
      <point x="104" y="-250" type="curve"/>
      <point x="133" y="-250"/>
      <point x="143" y="-250"/>
      <point x="172" y="-250" type="curve" smooth="yes"/>
      <point x="220" y="-250"/>
      <point x="260" y="-194"/>
      <point x="264" y="-140" type="curve"/>
      <point x="205" y="-140"/>
      <point x="119" y="-140"/>
    </contour>
  </outline>
</glyph>
<glyph name="z" format="1">
  <advance width="600"/>
  <unicode hex="007A"/>
  <outline>
    <contour>
      <point x="62" y="530" type="curve"/>
      <point x="62" y="511" type="line" smooth="yes"/>
      <point x="62" y="475"/>
      <point x="70" y="446"/>
      <point x="89" y="427" type="curve" smooth="yes"/>
      <point x="94" y="422"/>
      <point x="97" y="420"/>
      <point x="104" y="420" type="curve"/>
      <point x="159" y="420"/>
      <point x="202" y="420"/>
      <point x="256" y="420" type="curve" smooth="yes"/>
      <point x="341" y="420"/>
      <point x="453" y="420"/>
      <point x="538" y="420" type="curve"/>
      <point x="538" y="461"/>
      <point x="522" y="500"/>
      <point x="499" y="523" type="curve" smooth="yes"/>
      <point x="494" y="528"/>
      <point x="491" y="530"/>
      <point x="484" y="530" type="curve" smooth="yes"/>
      <point x="348" y="530"/>
      <point x="198" y="530"/>
    </contour>
    <contour>
      <point x="534" y="433" type="curve" smooth="yes"/>
      <point x="508" y="459"/>
      <point x="493" y="477"/>
      <point x="451" y="477" type="curve"/>
      <point x="363" y="338"/>
      <point x="207" y="200"/>
      <point x="62" y="110" type="curve"/>
      <point x="62" y="77"/>
      <point x="83" y="63"/>
      <point x="103" y="63" type="curve" smooth="yes"/>
      <point x="130" y="63"/>
      <point x="143" y="67"/>
      <point x="167" y="78" type="curve" smooth="yes"/>
      <point x="346" y="174"/>
      <point x="538" y="374"/>
      <point x="538" y="420" type="curve" smooth="yes"/>
      <point x="538" y="426"/>
      <point x="537" y="430"/>
    </contour>
    <contour>
      <point x="538" y="0" type="curve"/>
      <point x="538" y="19" type="line" smooth="yes"/>
      <point x="538" y="41"/>
      <point x="522" y="80"/>
      <point x="499" y="103" type="curve" smooth="yes"/>
      <point x="494" y="108"/>
      <point x="491" y="110"/>
      <point x="484" y="110" type="curve" smooth="yes"/>
      <point x="348" y="110"/>
      <point x="198" y="110"/>
      <point x="62" y="110" type="curve"/>
      <point x="62" y="91" type="line" smooth="yes"/>
      <point x="62" y="55"/>
      <point x="70" y="26"/>
      <point x="89" y="7" type="curve" smooth="yes"/>
      <point x="94" y="2"/>
      <point x="97" y="0"/>
      <point x="104" y="0" type="curve"/>
      <point x="159" y="0"/>
      <point x="202" y="0"/>
      <point x="256" y="0" type="curve" smooth="yes"/>
      <point x="341" y="0"/>
      <point x="453" y="0"/>
    </contour>
  </outline>
</glyph>
<glyph name="g.ver02" format="1">
  <advance width="600"/>
  <outline>
    <contour>
      <point x="319" y="453" type="curve" smooth="yes"/>
      <point x="372" y="453"/>
      <point x="421" y="441"/>
      <point x="452" y="422" type="curve"/>
      <point x="482" y="464"/>
      <point x="482" y="493"/>
      <point x="463" y="512" type="curve" smooth="yes"/>
      <point x="437" y="538"/>
      <point x="370" y="550"/>
      <point x="311" y="550" type="curve" smooth="yes"/>
      <point x="168" y="550"/>
      <point x="68" y="484"/>
      <point x="68" y="368" type="curve" smooth="yes"/>
      <point x="68" y="315" type="line" smooth="yes"/>
      <point x="68" y="270"/>
      <point x="82" y="245"/>
      <point x="133" y="193" type="curve" smooth="yes"/>
      <point x="152" y="175"/>
      <point x="191" y="180"/>
      <point x="206" y="197" type="curve"/>
      <point x="181" y="229"/>
      <point x="176" y="243"/>
      <point x="176" y="278" type="curve" smooth="yes"/>
      <point x="176" y="336" type="line" smooth="yes"/>
      <point x="176" y="422"/>
      <point x="224" y="453"/>
    </contour>
    <contour>
      <point x="297" y="238" type="curve" smooth="yes"/>
      <point x="239" y="238"/>
      <point x="165" y="244"/>
      <point x="118" y="267" type="curve"/>
      <point x="107" y="242"/>
      <point x="112" y="216"/>
      <point x="133" y="193" type="curve" smooth="yes"/>
      <point x="181" y="144"/>
      <point x="234" y="140"/>
      <point x="309" y="140" type="curve" smooth="yes"/>
      <point x="453" y="140"/>
      <point x="532" y="213"/>
      <point x="532" y="324" type="curve" smooth="yes"/>
      <point x="532" y="377" type="line" smooth="yes"/>
      <point x="532" y="422"/>
      <point x="520" y="455"/>
      <point x="463" y="512" type="curve" smooth="yes"/>
      <point x="445" y="530"/>
      <point x="397" y="524"/>
      <point x="379" y="506" type="curve"/>
      <point x="413" y="478"/>
      <point x="428" y="458"/>
      <point x="428" y="409" type="curve" smooth="yes"/>
      <point x="428" y="339" type="line" smooth="yes"/>
      <point x="428" y="277"/>
      <point x="377" y="238"/>
    </contour>
    <contour>
      <point x="105" y="58" type="curve" smooth="yes"/>
      <point x="105" y="45" type="line" smooth="yes"/>
      <point x="105" y="-12"/>
      <point x="153" y="-46"/>
      <point x="231" y="-46" type="curve" smooth="yes"/>
      <point x="425" y="-46" type="line" smooth="yes"/>
      <point x="444" y="-46"/>
      <point x="456" y="-60"/>
      <point x="456" y="-78" type="curve" smooth="yes"/>
      <point x="456" y="-122" type="line" smooth="yes"/>
      <point x="456" y="-157"/>
      <point x="453" y="-176"/>
      <point x="443" y="-202" type="curve"/>
      <point x="460" y="-205"/>
      <point x="505" y="-197"/>
      <point x="516" y="-185" type="curve" smooth="yes"/>
      <point x="552" y="-150"/>
      <point x="565" y="-123"/>
      <point x="565" y="-80" type="curve" smooth="yes"/>
      <point x="565" y="-42" type="line" smooth="yes"/>
      <point x="565" y="13"/>
      <point x="519" y="55"/>
      <point x="459" y="55" type="curve" smooth="yes"/>
      <point x="239" y="55" type="line" smooth="yes"/>
      <point x="221" y="55"/>
      <point x="215" y="61"/>
      <point x="215" y="79" type="curve" smooth="yes"/>
      <point x="215" y="107" type="line" smooth="yes"/>
      <point x="215" y="125"/>
      <point x="222" y="147"/>
      <point x="229" y="162" type="curve"/>
      <point x="229" y="168"/>
      <point x="227" y="173"/>
      <point x="223" y="177" type="curve" smooth="yes"/>
      <point x="182" y="177"/>
      <point x="105" y="109"/>
    </contour>
    <contour>
      <point x="537" y="-113" type="curve"/>
      <point x="461" y="-165"/>
      <point x="411" y="-170"/>
      <point x="332" y="-170" type="curve"/>
      <point x="250" y="-170" type="line"/>
      <point x="189" y="-170"/>
      <point x="161" y="-149"/>
      <point x="161" y="-101" type="curve" smooth="yes"/>
      <point x="161" y="-88" type="line" smooth="yes"/>
      <point x="161" y="-66"/>
      <point x="175" y="-39"/>
      <point x="202" y="-27" type="curve"/>
      <point x="202" y="-19"/>
      <point x="196" y="-12"/>
      <point x="188" y="-12" type="curve"/>
      <point x="111" y="-12"/>
      <point x="60" y="-62"/>
      <point x="60" y="-125" type="curve" smooth="yes"/>
      <point x="60" y="-137" type="line" smooth="yes"/>
      <point x="60" y="-201"/>
      <point x="124" y="-250"/>
      <point x="213" y="-250" type="curve"/>
      <point x="284" y="-250" type="line"/>
      <point x="387" y="-250"/>
      <point x="468" y="-234"/>
      <point x="516" y="-185" type="curve"/>
      <point x="542" y="-160"/>
      <point x="551" y="-127"/>
    </contour>
    <contour>
      <point x="449" y="494" type="curve" smooth="yes"/>
      <point x="524" y="556" type="line" smooth="yes"/>
      <point x="551" y="579"/>
      <point x="565" y="594"/>
      <point x="565" y="623" type="curve" smooth="yes"/>
      <point x="565" y="627"/>
      <point x="565" y="636"/>
      <point x="565" y="643" type="curve" smooth="yes"/>
      <point x="565" y="650"/>
      <point x="563" y="653"/>
      <point x="558" y="658" type="curve" smooth="yes"/>
      <point x="539" y="677"/>
      <point x="504" y="685"/>
      <point x="468" y="685" type="curve" smooth="yes"/>
      <point x="455" y="685" type="line"/>
      <point x="455" y="676"/>
      <point x="455" y="664"/>
      <point x="455" y="655" type="curve" smooth="yes"/>
      <point x="455" y="635"/>
      <point x="451" y="623"/>
      <point x="445" y="606" type="curve" smooth="yes"/>
      <point x="410" y="501" type="line"/>
      <point x="420" y="491"/>
      <point x="439" y="486"/>
    </contour>
  </outline>
</glyph>
<glyph name="i.ss01" format="1">
  <advance width="600"/>
  <outline>
    <contour>
      <point x="50" y="530" type="curve"/>
      <point x="50" y="511" type="line" smooth="yes"/>
      <point x="50" y="476"/>
      <point x="58" y="446"/>
      <point x="77" y="427" type="curve" smooth="yes"/>
      <point x="82" y="422"/>
      <point x="85" y="420"/>
      <point x="92" y="420" type="curve"/>
      <point x="137" y="420"/>
      <point x="176" y="420"/>
      <point x="221" y="420" type="curve"/>
      <point x="252" y="420"/>
      <point x="284" y="420"/>
      <point x="306" y="420" type="curve"/>
      <point x="306" y="439" type="line" smooth="yes"/>
      <point x="306" y="474"/>
      <point x="299" y="504"/>
      <point x="279" y="523" type="curve" smooth="yes"/>
      <point x="274" y="528"/>
      <point x="271" y="530"/>
      <point x="264" y="530" type="curve" smooth="yes"/>
      <point x="197" y="530"/>
      <point x="117" y="530"/>
    </contour>
    <contour>
      <point x="370" y="24" type="line"/>
      <point x="370" y="179"/>
      <point x="370" y="337"/>
      <point x="370" y="494" type="curve" smooth="yes"/>
      <point x="370" y="501"/>
      <point x="368" y="504"/>
      <point x="363" y="509" type="curve" smooth="yes"/>
      <point x="352" y="520"/>
      <point x="314" y="530"/>
      <point x="279" y="530" type="curve" smooth="yes"/>
      <point x="260" y="530" type="line"/>
      <point x="260" y="419"/>
      <point x="260" y="285"/>
      <point x="260" y="196" type="curve"/>
      <point x="260" y="153"/>
      <point x="260" y="109"/>
      <point x="260" y="66" type="curve" smooth="yes"/>
      <point x="260" y="59"/>
      <point x="262" y="56"/>
      <point x="267" y="51" type="curve" smooth="yes"/>
      <point x="286" y="32"/>
      <point x="316" y="24"/>
      <point x="351" y="24" type="curve" smooth="yes"/>
    </contour>
    <contour>
      <point x="50" y="110" type="curve"/>
      <point x="50" y="91" type="line" smooth="yes"/>
      <point x="50" y="56"/>
      <point x="58" y="26"/>
      <point x="77" y="7" type="curve" smooth="yes"/>
      <point x="82" y="2"/>
      <point x="85" y="0"/>
      <point x="92" y="0" type="curve"/>
      <point x="147" y="0"/>
      <point x="202" y="0"/>
      <point x="256" y="0" type="curve"/>
      <point x="345" y="0"/>
      <point x="476" y="0"/>
      <point x="565" y="0" type="curve"/>
      <point x="565" y="19" type="line" smooth="yes"/>
      <point x="565" y="40"/>
      <point x="549" y="80"/>
      <point x="526" y="103" type="curve" smooth="yes"/>
      <point x="521" y="108"/>
      <point x="518" y="110"/>
      <point x="511" y="110" type="curve" smooth="yes"/>
      <point x="371" y="110"/>
      <point x="190" y="110"/>
    </contour>
    <contour>
      <point x="386" y="617" type="line"/>
      <point x="386" y="644"/>
      <point x="386" y="683"/>
      <point x="386" y="710" type="curve" smooth="yes"/>
      <point x="386" y="718"/>
      <point x="384" y="721"/>
      <point x="378" y="727" type="curve" smooth="yes"/>
      <point x="360" y="745"/>
      <point x="338" y="751"/>
      <point x="306" y="751" type="curve"/>
      <point x="245" y="751" type="line"/>
      <point x="245" y="724"/>
      <point x="245" y="686"/>
      <point x="245" y="658" type="curve" smooth="yes"/>
      <point x="245" y="650"/>
      <point x="247" y="647"/>
      <point x="253" y="641" type="curve" smooth="yes"/>
      <point x="270" y="624"/>
      <point x="293" y="617"/>
      <point x="325" y="617" type="curve"/>
    </contour>
  </outline>
</glyph>
<glyph name="l.ss01" format="1">
  <advance width="600"/>
  <outline>
    <contour>
      <point x="50" y="750" type="curve"/>
      <point x="50" y="731" type="line" smooth="yes"/>
      <point x="50" y="696"/>
      <point x="58" y="666"/>
      <point x="77" y="647" type="curve" smooth="yes"/>
      <point x="82" y="642"/>
      <point x="85" y="640"/>
      <point x="92" y="640" type="curve"/>
      <point x="137" y="640"/>
      <point x="176" y="640"/>
      <point x="221" y="640" type="curve" smooth="yes"/>
      <point x="252" y="640"/>
      <point x="284" y="640"/>
      <point x="306" y="640" type="curve"/>
      <point x="306" y="659" type="line" smooth="yes"/>
      <point x="306" y="694"/>
      <point x="299" y="724"/>
      <point x="279" y="743" type="curve" smooth="yes"/>
      <point x="274" y="748"/>
      <point x="271" y="750"/>
      <point x="264" y="750" type="curve" smooth="yes"/>
      <point x="197" y="750"/>
      <point x="117" y="750"/>
    </contour>
    <contour>
      <point x="370" y="24" type="line"/>
      <point x="370" y="229"/>
      <point x="370" y="538"/>
      <point x="370" y="714" type="curve" smooth="yes"/>
      <point x="370" y="721"/>
      <point x="368" y="724"/>
      <point x="363" y="729" type="curve" smooth="yes"/>
      <point x="352" y="740"/>
      <point x="314" y="750"/>
      <point x="279" y="750" type="curve" smooth="yes"/>
      <point x="260" y="750" type="line"/>
      <point x="260" y="620"/>
      <point x="260" y="335"/>
      <point x="260" y="196" type="curve" smooth="yes"/>
      <point x="260" y="153"/>
      <point x="260" y="109"/>
      <point x="260" y="66" type="curve" smooth="yes"/>
      <point x="260" y="59"/>
      <point x="262" y="56"/>
      <point x="267" y="51" type="curve" smooth="yes"/>
      <point x="286" y="32"/>
      <point x="316" y="24"/>
      <point x="351" y="24" type="curve" smooth="yes"/>
    </contour>
    <contour>
      <point x="50" y="110" type="curve"/>
      <point x="50" y="91" type="line" smooth="yes"/>
      <point x="50" y="56"/>
      <point x="58" y="26"/>
      <point x="77" y="7" type="curve" smooth="yes"/>
      <point x="82" y="2"/>
      <point x="85" y="0"/>
      <point x="92" y="0" type="curve"/>
      <point x="147" y="0"/>
      <point x="202" y="0"/>
      <point x="256" y="0" type="curve" smooth="yes"/>
      <point x="345" y="0"/>
      <point x="476" y="0"/>
      <point x="565" y="0" type="curve"/>
      <point x="565" y="19" type="line" smooth="yes"/>
      <point x="565" y="46"/>
      <point x="549" y="80"/>
      <point x="526" y="103" type="curve" smooth="yes"/>
      <point x="521" y="108"/>
      <point x="518" y="110"/>
      <point x="511" y="110" type="curve" smooth="yes"/>
      <point x="371" y="110"/>
      <point x="190" y="110"/>
    </contour>
  </outline>
</glyph>
<glyph name="r.ss02" format="1">
  <advance width="600"/>
  <outline>
    <contour>
      <point x="50" y="530" type="curve"/>
      <point x="50" y="511" type="line" smooth="yes"/>
      <point x="50" y="476"/>
      <point x="58" y="446"/>
      <point x="77" y="427" type="curve" smooth="yes"/>
      <point x="82" y="422"/>
      <point x="85" y="420"/>
      <point x="92" y="420" type="curve"/>
      <point x="144" y="420"/>
      <point x="180" y="420"/>
      <point x="232" y="420" type="curve"/>
      <point x="232" y="439" type="line" smooth="yes"/>
      <point x="232" y="472"/>
      <point x="222" y="530"/>
      <point x="182" y="530" type="curve" smooth="yes"/>
      <point x="130" y="530"/>
      <point x="102" y="530"/>
    </contour>
    <contour>
      <point x="276" y="-10" type="line"/>
      <point x="276" y="121"/>
      <point x="276" y="252"/>
      <point x="276" y="384" type="curve"/>
      <point x="276" y="447"/>
      <point x="232" y="530"/>
      <point x="185" y="530" type="curve" smooth="yes"/>
      <point x="160" y="530" type="line"/>
      <point x="160" y="448"/>
      <point x="160" y="299"/>
      <point x="160" y="223" type="curve" smooth="yes"/>
      <point x="160" y="159"/>
      <point x="160" y="95"/>
      <point x="160" y="32" type="curve"/>
      <point x="160" y="25"/>
      <point x="162" y="22"/>
      <point x="167" y="17" type="curve" smooth="yes"/>
      <point x="186" y="-2"/>
      <point x="222" y="-10"/>
      <point x="257" y="-10" type="curve" smooth="yes"/>
    </contour>
    <contour>
      <point x="422" y="550" type="curve" smooth="yes"/>
      <point x="371" y="550"/>
      <point x="300" y="483"/>
      <point x="261" y="416" type="curve" smooth="yes"/>
      <point x="242" y="382"/>
      <point x="237" y="358"/>
      <point x="238" y="317" type="curve"/>
      <point x="304" y="408"/>
      <point x="358" y="436"/>
      <point x="413" y="436" type="curve" smooth="yes"/>
      <point x="458" y="436"/>
      <point x="490" y="421"/>
      <point x="520" y="393" type="curve"/>
      <point x="534" y="399"/>
      <point x="540" y="413"/>
      <point x="540" y="428" type="curve" smooth="yes"/>
      <point x="540" y="472"/>
      <point x="481" y="550"/>
    </contour>
    <contour>
      <point x="540" y="250" type="line"/>
      <point x="540" y="309"/>
      <point x="540" y="369"/>
      <point x="540" y="428" type="curve" smooth="yes"/>
      <point x="540" y="460"/>
      <point x="493" y="484"/>
      <point x="449" y="484" type="curve" smooth="yes"/>
      <point x="430" y="484" type="line"/>
      <point x="430" y="463"/>
      <point x="430" y="443"/>
      <point x="430" y="425" type="curve" smooth="yes"/>
      <point x="430" y="388"/>
      <point x="430" y="332"/>
      <point x="430" y="292" type="curve" smooth="yes"/>
      <point x="430" y="285"/>
      <point x="432" y="282"/>
      <point x="437" y="277" type="curve" smooth="yes"/>
      <point x="456" y="258"/>
      <point x="486" y="250"/>
      <point x="521" y="250" type="curve" smooth="yes"/>
    </contour>
  </outline>
</glyph>
<glyph name="s.alt1" format="1">
  <advance width="600"/>
  <outline>
    <contour>
      <point x="390" y="263" type="curve" smooth="yes"/>
      <point x="296" y="282" type="line" smooth="yes"/>
      <point x="211" y="299"/>
      <point x="195" y="314"/>
      <point x="195" y="337" type="curve" smooth="yes"/>
      <point x="195" y="351"/>
      <point x="199" y="378"/>
      <point x="206" y="397" type="curve"/>
      <point x="135" y="397"/>
      <point x="85" y="365"/>
      <point x="85" y="328" type="curve"/>
      <point x="85" y="276"/>
      <point x="141" y="238"/>
      <point x="259" y="213" type="curve" smooth="yes"/>
      <point x="352" y="193" type="line" smooth="yes"/>
      <point x="436" y="175"/>
      <point x="467" y="158"/>
      <point x="498" y="112" type="curve"/>
      <point x="524" y="112"/>
      <point x="540" y="124"/>
      <point x="540" y="152" type="curve"/>
      <point x="540" y="206"/>
      <point x="494" y="243"/>
    </contour>
    <contour>
      <point x="300" y="-20" type="curve" smooth="yes"/>
      <point x="441" y="-20"/>
      <point x="540" y="32"/>
      <point x="540" y="107" type="curve" smooth="yes"/>
      <point x="540" y="152" type="line"/>
      <point x="540" y="176"/>
      <point x="517" y="190"/>
      <point x="495" y="184" type="curve"/>
      <point x="465" y="124"/>
      <point x="404" y="90"/>
      <point x="300" y="90" type="curve" smooth="yes"/>
      <point x="197" y="90"/>
      <point x="154" y="102"/>
      <point x="95" y="145" type="curve"/>
      <point x="61" y="145" type="line"/>
      <point x="61" y="122"/>
      <point x="61" y="97"/>
      <point x="61" y="73" type="curve"/>
      <point x="60" y="16"/>
      <point x="153" y="-20"/>
    </contour>
    <contour>
      <point x="385" y="550" type="curve" smooth="yes"/>
      <point x="249" y="550"/>
      <point x="85" y="450"/>
      <point x="85" y="368" type="curve" smooth="yes"/>
      <point x="85" y="328" type="line" smooth="yes"/>
      <point x="85" y="293"/>
      <point x="143" y="277"/>
      <point x="201" y="277" type="curve"/>
      <point x="196" y="293"/>
      <point x="195" y="320"/>
      <point x="195" y="337" type="curve" smooth="yes"/>
      <point x="195" y="377"/>
      <point x="306" y="440"/>
      <point x="385" y="440" type="curve" smooth="yes"/>
      <point x="404" y="440"/>
      <point x="425" y="434"/>
      <point x="453" y="420" type="curve"/>
      <point x="492" y="459"/>
      <point x="491" y="496"/>
      <point x="474" y="512" type="curve"/>
      <point x="450" y="537"/>
      <point x="419" y="550"/>
    </contour>
    <contour>
      <point x="515" y="420" type="curve"/>
      <point x="515" y="454"/>
      <point x="500" y="486"/>
      <point x="474" y="512" type="curve"/>
      <point x="456" y="531"/>
      <point x="414" y="520"/>
      <point x="385" y="494" type="curve"/>
      <point x="397" y="472"/>
      <point x="405" y="443"/>
      <point x="405" y="429" type="curve"/>
      <point x="405" y="421"/>
      <point x="405" y="414"/>
      <point x="405" y="406" type="curve"/>
      <point x="405" y="368"/>
      <point x="429" y="350"/>
      <point x="480" y="350" type="curve" smooth="yes"/>
      <point x="515" y="350" type="line"/>
      <point x="515" y="374"/>
      <point x="515" y="398"/>
    </contour>
  </outline>
</glyph>
